<svg xmlns="http://www.w3.org/2000/svg" viewBox="0 0 717.22 697.26">
  <defs>
    <style>
      <!-- .cls-1{
        fill:#f0c39f;
      } -->
      polyline, path{
        fill: deeppink ;
        stroke: #FFF;
      }
      polyline[data-num],
      path[data-num],
      path[data-num] path,
      path[data-num] polyline{
        fill:  #d07328!important;
        stroke: #fff;
      }
    </style>
  </defs>
  <title>Fichier 6</title>
  <g id="Calque_2" data-name="Calque 2">
    <g id="carteDeFrance">
      <!-- Début Réunion -->
      <path data-num="974" class="cls-1" d="M47.84,420.27l-3.52-6.66-3.67-3.52,1.13-5.16L38.18,402H34.66l-2-1.58-5.09.45-4-2.92-4,1-4.57.52L11.38,403l-5.17,1,.6,6.67-5,.44.45,6.67,3,2,2.1,5.54-2.1,2.55,5.62,5.54,5.54.52L19.92,439l15.79,4.12L48.81,440v-3.59l1.5-7.12,2.1-5.09-2.1-4Z"/>
      <!-- Fin Réunion -->

      <!-- Début Mayotte -->
      <polyline data-num="976" class="cls-1" points="39.01 587.08 32.34 583.12 29.27 582.67 27.48 584.39 23.06 582.67 22.16 579.15 19.02 575.18 17.3 574.73 14.68 579.15 12.43 580.94 11.53 582.22 11.08 586.26 10.71 587.08 13.33 587.91 15.95 589.25 19.02 589.25 19.91 594.12 19.91 600.34 22.16 604.23 24.93 607.3 25.75 612.16 23.06 613.51 19.02 610.44 19.02 607.82 12.88 606.85 14.68 608.65 16.4 612.16 19.02 612.16 18.64 614.34 15.95 616.58 19.91 616.58 19.91 619.65 22.16 619.65 23.06 621.52 26.58 621.9 27.03 619.2 30.17 619.2 32.34 621.52 32.34 619.65 31 617.48 29.27 615.31 30.62 612.61 32.79 610.44 32.79 607.82 35.04 606.85 36.31 604.68 32.79 600.34 31.89 597.64 34.59 594.57 39.01 590.68 39.01 587.08"/>
      <!-- Fin Mayotte -->
      <!-- Début Guadeloupe -->
      <polyline data-num="971" class="cls-1" points="51.14 502.11 47.84 498.21 44.02 495.97 38.41 502.11 40.13 507.05 42.83 507.57 45.59 508.69 50.09 504.95 51.14 502.11"/>
      <path data-num="971"  class="cls-1" d="M27.85,466l-2.69,2.17-3.45,1.2-.6,3.74-3.82.75-2.24-4.49L9,466l-5.61-.67-2.17,5v5.09l2.69,6.67v8.23l2.92,4.57L9.51,501l2.24-.52,9.36-6.14v-10L19,482.57V476.5c.9-.52,1.79-1.05,2.69-1.65l2.92,3.9L29,479.8,40.65,476l5.62.52,4.42-1.05-3.9-3.37-5.54-3.37-6.14-1-1.72-2.92v-4.94L31.22,456l-3.37-4-4.49,6.14.67,3.37,2.77,1.64L27.85,466"/>
      <polyline data-num="971" class="cls-1" points="57.35 470.36 60.05 470.96 65.06 469.39 67.31 468.19 64.46 466.54 57.35 470.36"/>
      <!-- Fin Guadeloupe -->
      <!-- Début Martinique -->
      <path data-num="972" class="cls-1" d="M12.35,514.09H6.21L2,515.43,0,519.7l2,4.79,3.74,1.35.52,2.4.45,6.14,3.3,4.71,3.74.9,1.05,2.4,4.12.89,3.44-.89,1.35,2.84,2.39,1.87-2.39.9-8.91.45v2.85l.9,2.84L18,557.88l.9-.45,2.47-1.79h3.74L31.67,557l2.77,1.42,2.4.45-1.5,3.37,3,2.77,2.77-2.32L44,557v-4.2H42.53l-1-5.24-4.71-7.11-2-1.35,1-1.5V535.8l-2.4.9H31.22l-.52-2.32,2.39-1V531l-2.92-.45v-1.87l2.4-2,2.32,2,.45-2,2.47-1.35-1-2.4-3.75,2.4H30.17l-2.24,1.35-7.57-9.36-4.26-.45Z"/>
      <!-- Fin Martinique -->
      <!-- Début Guyane -->
      <path data-num="973" class="cls-1" d="M55.48,659.56l-3.3-5H49.34l-2.1-1.12-14.37-13.1-9.29-.6-3.29-2.1-6-2.25L5.39,648v9.89l2.25,6.06,5.54,7.71-2.85,6.59v6.59l-3.67,6.14L2.17,692.5l8.16,2.77,4-1.72,16.32.6,7.34-2.7.52-4,12.06-19.84,4.26-4.26Z"/>
      <!-- Fin Guyane -->
      <!-- Début Basse corse -->
      <path data-num="2A" class="cls-1" d="M678.19,638.45v1.94l1.77,1.24,3,1.74.2,1.41-1.77.53-2.81.54v1.21l1,1.06.19,3.52,3.86,1.24,1.4.33,1.24,1.94-.87,1.24-1.41.51-1.07,1.94-1,1.23.51,3.15,2.64-.17.71.54,2.47-1.24.7.7-1.23,2.65,1.23,1.23-2.11,1.58-1.4,3.15,3.85.9,5.45.5-2.27,2.65s-1.07-.42-1.55-.2l-.06,0,0,0,0,0,0,0,0,0v0a.13.13,0,0,1,0,.05v0s0,0,0,.06,0,0,0,0a10.37,10.37,0,0,1-1.21,3l1.74,1.91,3.18,1.94,6,1.58,1.74.7,1.6.7-1.07,1.94,2.82-.17.53,1.24h2.81l.7-3.34-1.77-.37,2.48-2.61-.88-.9.17-1.58,3.18-1.74.17-1.94-2.11-.17-1.41,1.21v-1.74l2.82-.17.87-2.11.7-6.16-.53-2.64-.06-2.53-3.06,2-3.66.14-.31-2.53.48-.64-1.12-.79-.31-4.3-.48-.79h-1.91l-1-.79v-3l-1.26-.79-1-.48-1.91-2.39.14-1.43h-2.36l-.82-2.39h-3.34l-1.75-2.39.48-.79-1.1-.64-2.55.47-1-.62H681.9l-.33-.95-2-.37Z"/>
      <!-- Fin Basse Corse -->
      <!-- Début Haute Corse -->
      <path data-num="2B" class="cls-1"  d="M707.54,603.31l-2.64,1.77.37,1.74,1.4,1.78-1.57,1.2.7,1.41-1.07,1.24V614l1.77,1.6v2.45l-1.06,2.28-1.21.53-1.41-1.94-2.47.2-.54-.37H697.7l-1.91,1.77-.73,3-4.55.88-3.52,3-.7,1.94-1.74-.17-.9-1.07-.51,3-1.24.5-.36,2.82.53,1.23-1.94,1.41-.53,1.4,2,.37.33.95h3.49l1,.62,2.55-.47,1.1.64-.48.79,1.75,2.39h3.34l.82,2.39h2.36l-.14,1.43,1.91,2.39,1,.48,1.26.79v3l1,.79h1.91l.48.79.31,4.3,1.12.79-.48.64.31,2.53,3.66-.14,3.06-2-.11-5.2,4.22-6v-9.84l-1.75-3.35L714.94,627l-1.24-1.94-2.28-1.74-.36-6.53,1.07-3-1.41-4.75-.87-3.85-.73-1.07-1.58-.87Z"/>
      <!-- Fin Basse Corse -->
      <!-- Début Bouches-du-Rhône -->
      <path data-num="13" class="cls-1" d="M520.06,566.59,512.43,571l-2,14.66-8.07-1.14-2.31,6.15,1.92,2.71-8.86,5.41-2.44,5.67,8.64.39,11.47.83,2.18,2.18h-4.1l-2.7,4.63,11.69,2.44,9.29-1.61-4.93-4.67,3.27-2.71,5.2,2.18,2.44,5.2,15.57.26,4.06-1.66.83,2.49-4.36,3.79,6,.26-1.09,2.75-1.66,1.92h13.35l6.54,2.18.66.88.26-5.41,2-2.23,2.49-1.48-.26-1.49-2-2h-2l-1.26-1.48,2.22-2v-.74l-2.44-1.22v-2l5.41.27,1.26-1L574.07,601l.26-5.19-3-2.44,2.44-4.93,5.93-4-4.45-3L572.11,584l-7.42,1.7-5.93-.74-10.6-4.41-6.42.22-5.41-2.44-2-2.75-4.19-4.67-9.86-4.19-.22-.09Z"/>
      <!-- Fin Bouches-du-Rhône -->
      <!-- Début Vaucluse -->
      <path data-num="84" class="cls-1" d="M530.23,526.72l-3.84.3-3,4.63.79,4.88,4.62.57-.78,2.18-3.58.26-4.06,4.11-1.09-1.36.78-5.45-1.61-1.92L511.12,536l-1.44,2.92.78.44,4.63,7.68v6.19l8.11,8.07v3.49l-3.14,1.79.22.09,9.86,4.19,4.19,4.67,2,2.75,5.41,2.44,6.42-.22,10.6,4.41,5.93.74,7.42-1.7,3-2.4.4-2-5.68-6.42h-6.19v-2.22l2.22-2.49v-2.7L561,563.23l-.48-4,2.71-1.22V554.6l-3-.53-.22-3.71,0-.26-2.49-.17-4.1-3-1.09-3.54-7.63-.56-5.72-.53-.57-3.27,1.92-4.1-3.53,3-5.45-.57-1.09-1.92L534,530.3l-3.79-3.58Z"/>
      <!-- Fin Vaucluse -->
      <!-- Début Var -->
      <path data-num="83" style="fill:#000" class="cls-1" d="M629,571.17l-4.14.18-2,2-7.42-.27-6.41,4.67-4.41-3L597.76,577l-1.22,2.49-4.93,3.71-8.9-5.94-7.2,2.36-.35,1.92.13-.09,4.45,3-5.93,4-2.44,4.93,3,2.44-.26,5.19,4.71,4.45-1.26,1-5.41-.27v2l2.44,1.22v.74l-2.22,2,1.26,1.48h2l2,2,.26,1.49-2.49,1.48-2,2.23-.26,5.41.74,1,4.89,2.18,1.35,5.45,3,.57,2.75-1.92,4.88-3,8.47.83-.26,2.18-2.75,1.35,6.54.31-1.61-1.66-.57-3.53,3.53-2.45,4.11,1.36,1.65.52,1.36,1.66,1.92-1.35.52-3.58,2.18-1.88h5.72l1.65-2.48,3.8,1.09,4.36-1.88V613.8l-5.71.26,4.36-2.7,2.18-3,.57-4.37,7.89-1.09L645,598l-3-3.14v-1.74l-1.49-1.49,2-1.7-.48-2.75-3.23-1.22H637l-3-3-.52-5.19-3.19-1.48-3.23-.22-1.22-3,3.14-1.92Z"/>
      <!-- Fin Var -->
      <!-- Début Alpes-de-Haute-Provence -->
      <path data-num="04" style="fill:#000;" class="cls-1" d="M637.51,503l-3,4.45-4.19,2.49-1.48,3-3.71.22v2.7l-1,1.48L622.67,521l-8.85-.22-4.19-2.22-2.75,2-5.15-.26L600.47,522h1.26l.74,4.66-1.26.53-4.67-3v-1.74l-2.7-2.23h-1.49v2.49l-2.22.48-4.71,2.7-3,5-.74,2.44,1.74.48.26,4H582l-2.71-2.49-1.48.26.74,2.23,4.19,4.67-2.7,1-2-1.22h-5l-4.19,3.93,0,0-.18,1.62-1.61-1.92-2.18-1.92-1.4,4.1L561,550.19l-1-.09,0,.26.22,3.71,3,.53V558l-2.71,1.22.48,4,4.93,2.45v2.7l-2.22,2.49v2.22h6.19l5.68,6.42,0,.13,7.2-2.36,8.9,5.94,4.93-3.71,1.22-2.49,6.94-2.22,4.41,3,6.41-4.67,7.42.27,2-2,4.14-.18.09,0-1-2.49,1.22-1.48-.48-2h3.93l1-1.22,3.71-2,3,2,2-1.27-4.67-4.19-5-4.67-1.71-.52-.26-3.71-3-4.4,1-6.42,1.48-3.49,2.71-2.22.26-3.45,3.71-2,.56-.22v-5.28l3.84-.52-2.18-1.92-2.75-.83-1.35-3.54,1.09-2.44,4.89-5.19-.79-3.84.7-.74-3.53-.18Z"/>
      <!-- Fin Alpes-de-Haute-Provence -->
      <!-- Début Alpes-Maritimes -->
      <path data-num="06" class="cls-1" d="M637.59,527.46l-.56.22-3.71,2-.26,3.45-2.71,2.22-1.48,3.49-1,6.42,3,4.4.26,3.71,1.71.52,5,4.67,4.67,4.19-2,1.27-3-2-3.71,2-1,1.22h-3.93l.48,2-1.22,1.48,1,2.49-3.23,2,1.22,3,3.23.22,3.19,1.48.52,5.19,3,3h1.7l3.23,1.22.48,2.75-2,1.7,1.49,1.49v1.74l3,3.14.22-.26.26-6.24,5.45,1.09,1.92-2.48,2.75.56.26-8.46,6.29-.52,5.45-4.93h4.89l.26-3,4.93-3-2.75-6.28,4.1-3.54-.83-4.1,6-1.92,1.62-6-.79-4.1-1.39-2.44-1.1-3.58-4.05.31-12.83,4.62h-4.1L654.52,538l-7.11-1.92h-4.1v-4.93l-5.72-3.54v-.17Z"/>
      <!-- Fin Alpes-Maritimes -->
      <!-- Début 05 -->
      <path data-num="05" class="cls-1" d="M614.47,467.82,612,468.91l-.57,4.1-4.88.57-.83-3.84-1.62-1.61-4.93.52-1.92,1.66L596.19,476l.83,1.35,5.72.57,1.09,3.54,2.18,1.09v6l-5.19-.26-2.19,2.44-6.23-1.09-3.54,3-2.48-1.09-3.54,2.75,1.35,2.45L582,498.93h-6.8v3.27l2.18,1.09-.83,1.92-4.63,1.88-5.71.56-1.66,5.19-.26,3.28,3,2.44-3,3.53-3.8-1.92-4.36-.26-.57,2.44,2.75,1.92L555,526.46l1.13,4.62,9.25,2.49,1.66,3.53,2.7.52-.91,8.51,0,0,4.19-3.93h5l2,1.22,2.7-1-4.19-4.67-.74-2.23,1.48-.26L582,537.8h1.74l-.26-4-1.74-.48.74-2.44,3-5,4.71-2.7,2.22-.48v-2.49h1.49l2.7,2.23v1.74l4.67,3,1.26-.53-.74-4.66h-1.26l1.26-1.75,5.15.26,2.75-2,4.19,2.22,8.85.22,1.49-3.71,1-1.48v-2.7l3.71-.22,1.48-3,4.19-2.49,3-4.45,3.53.18,2.58-2.79,3,.26v-2.44l-3.79-1.92-.83-7.9-3-1.09-3.8.57L628,484.27,627,476.11l-4.06-1.35L621.5,472l-1.79-3.93-5.24-.26Z"/>
      <!-- Fin 05 -->
      <!-- Début 48 -->
      <path data-num="48" class="cls-1" d="M437.78,486.1l-7.64,2.75L428,493.74l-4.88-3.28-3.84,12-3.93,9,5.72,7-.4,5.41,3.84,2.7v6.54l1.18,9.25,4.63,2-.4,3.05,6.55-1.13,2.31,1.13-1.44,1.27,8.42,5.62,7.2-1.48,1.22-1.74-1-2.45,3-.74,4.19,3.93,7.16.74,3.22-4.93v-4.19l2-2.22-1.75-.48v-5.68L467,530.91l3.22-.53,1.71-1.48,1.35-2.62-1.35-.83.78-5.76-4.62-5-1.92-10-6.94-8.85L454.14,497l-1.09-3.8H450.3l-.52,3.27-7.07,2.19-4.93-12.57Z"/>
      <!-- Fin 48 -->
      <!-- Début 03 -->
      <path data-num="03" class="cls-1" d="M411,340.51l-3.8,4.89-2.18.26-2.44,2.49-2.75-3-7.33,7.37v4.36l1.35,1.1.26,2.18-3.79,3L386.78,362l-6.81,1.4-3.53,4.06-1.31,2.79.22,0,3.27,4.62v3.27l1.88,2.44,1.92-2.44L384.6,382l3,1.09,3,7.07.13,2.05,4.14,3.23,2.23-1,1.74-4.18,1.7-.48V387.5l3-.26.26,1.48,3.71-4.19h4.19l.74,1.49-2,2.7,2.92,3.23.53,2,6.89,4,8.37,1.22,2.49-.27,3.71.75,3.18-2,2.49,1.22.48,3.45,3.23.74,4.19-.22,1.22,3,3.84,1.53.13-1.35,6.54-.31-.52-15.53-1.92-3.8.79-3,4.53-.78.13-.31,5.72-4.36.26-10.65-1.92-2.7h-4.36l-1.62-2.18h-4.62l-1.35-1.66v-4.1l-5.5-10.34-2.7-1.92-5.2,7.11-2.18.53-.83-3.54L437,347.32l-1.09,2.18H431.8l-.56-2.44-2.75,1.61-3,1.66-3.27-3.58-4.67-2.18-.26-3.53-6.28-.53Z"/>
      <!-- Fin 03 -->
      <!-- Début 30 -->
      <path data-num="30" class="cls-1" d="M473.25,526.28l-1.35,2.62-1.71,1.48-3.22.53,3.92,4.18v5.68l1.75.48-2,2.22v4.19l-3.22,4.93-7.16-.74-4.19-3.93-3,.74,1,2.45-1.22,1.74-7.2,1.48-8.42-5.62-1.61,1.44V554l-3.1.74.78,3.1,3.84.78h4.23l1.18,5.37-5,2.31v2.44l3.93,1.36v2.22l1.75,1,1.48-1.27h2l1,2.23h3l1.49-5.2h2.44l3.71-4.66,4.45.48.74,6.41,1.7,2,2.75-1.49,4.67,2.45,1.74,3,8.12,4.93,3,6.94v3.66l-5.19,3-3.36,3,4.19.31v5.45l6.24-.31,3.36.18,2.44-5.67,8.86-5.41-1.92-2.71,2.31-6.15,8.07,1.14,2-14.66,10.77-6.16v-3.49l-8.11-8.07v-6.19l-4.63-7.68L500.82,534l-.74,4.23-3.88.39-1.14-4.23-3.88.74-.74,5.41-3.1-1.13-6.54-4.28-3.1,1.57v-7.72l-4.45-2.66Z"/>
      <!-- Fin 30 -->
      <!-- Début 11 -->
      <path data-num="11" class="cls-1" d="M372.82,606.47l-.39,5-5-1.57H362l.39-1.92-2.7.39-5.76,1.92L352,606.82l-3.89,3.49,1.18,2.7L345,614.93l-.74,4.23-3.5,1.58,3.1,3.44-.78,2.31L356.63,633l1.14,9.29v5l.78,6.54h-6.94l-1.92,2.71,8.86,7.33,5-2.71,6.15,7.33-.92.09,1.18.7,11.08-5.41-2.7-4-.22-4.67H404l-.48-3.49,5.94-3.19,6.89,5.41,3.58,1.66-.22-7.81.3-9-3.27.27L414,635.09l2.18-3.58,4.63,4.36,4.1-3.27,2.75-2.7L428,627l-3.49-.13L423.29,623l-3.44-.26L416.62,618l-2.49.26-2.92-1.75-.52-4.18-1.49.74.74,3H406.5l-.26,4.93-5.15,1.75-2.49-5.19-3.44,2.22-3-2.22-1.48-3.45,2.48-3L392,607.91l-.3.09h-8.12l-8.46-1.53Z"/>
      <!-- Fin 11 -->
      <!-- Début 34 -->
      <path data-num="34" class="cls-1" d="M458.33,564.46l-3.71,4.66h-2.44l-1.49,5.2h-3l-1-2.23h-2l-1.48,1.27-1.75-1v-2.22l-3.93-1.36v1.44L433,571l-2.31,2,.74,4.62h-4.23L423,575.23h-2.32v2.71L421,586h-6.94l-1.57,3.1-10,3.44-3.83-2.66-2.32,3.45-1.13,3.84,4.23,3.88-1.57,5L392,607.91l1.18,3.18-2.48,3,1.48,3.45,3,2.22,3.44-2.22,2.49,5.19,5.15-1.75.26-4.93h3.44l-.74-3,1.49-.74.52,4.18,2.92,1.75,2.49-.26,3.23,4.71,3.44.26,1.23,3.93L428,627l.17-1.49,9.82-3,1.09-2.44,7.63-.26,2.45-3,14.74-11.74,9.25-6.54,3.75.26,3.36-3,5.19-3v-3.66l-3-6.94-8.12-4.93-1.74-3L468,571.87l-2.75,1.49-1.7-2-.74-6.41-4.45-.48Z"/>
      <!-- Fin -->
      <!-- Début 66 -->
      <path data-num="66" class="cls-1" d="M409.47,648.61l-5.94,3.19.48,3.49H378.14l.22,4.67,2.7,4L370,669.34l-1.18-.7-9.11.65-1.14,2.32-4.62,1.17-3.1,2.71-8.46,2,.48,2.88,4.1,3.84,8.15,2.18.27,4.89,4.36,3.84,3.27-.57,4.67-5.72,5.71-1.09,9,3,7.64,6.55,2.18-2.75h1.92l1.92,1.35,1.61-.78.26-3.84,8.21-1.92,2.7-3.54,4.1-1.35h5.72l3.57,3.8,4.37.3v-4.36l-2.18-3-3.84-1.66-.61-23.82L416.36,654l-6.89-5.41Z"/>
      <!-- Fin 66 -->
      <!-- Début 15 -->
      <path data-num="15" class="cls-1" d="M389,446.27l-.83,3,1.36,3.27-1.66,1.92h-2.71l-2.74-3L380,450.11l-.26,7.63-4.93,3-3.53,4.89.83,4.93L371,472.75l-1.4,4.36h-2.18l-2.18,2.71,1.65,1.66,1.1,2.7-3.54,2.49,1.44,9.12,4.63,3.44L367,507.35l3.49,1.52L369,513.5l3,.39,2.31-3.84h3.89l.74,1.14h8.51l1.52-3.45,1.92-.79.79-6.15h1.92v-6.54l7.72-6.59.79,1.18.74,5,5.41-.79,1.18,7.72h2.66l.78,7.72,2.4,3,3.93-9,3.84-12,4.88,3.28,2.18-4.89,7-2.53V484l-1.48-2.23-3-1.74,1.49-2.23-1.27-1.22,1.49-.48,1.74-1.48-3-.27-1.48-2-.48-5.19-1.74-1.75-1.23-4.4H422l-1.22-3.49-2-.22-1,2-3.92-.26-3.71-5.67-1.49-.22-3-1.48-1.75,1.7h-4.4l-2.23-4.67L389,446.27Z"/>
      <!-- Fin 15 -->
      <!-- Début 43 -->
      <path data-num="43" class="cls-1" d="M433.63,449.93l-2,1v1.7l-3,.26-2.7,2.22-4.93.75-1.13,1.61.87.09,1.22,3.49h6.19l1.23,4.4,1.74,1.75.48,5.19,1.48,2,3,.27-1.74,1.48-1.49.48,1.27,1.22L432.67,480l3,1.74,1.48,2.23v2.31l.66-.22,4.93,12.57,7.07-2.19.52-3.27h2.75l1.09,3.8,5.06-1.22,6.28,8,3.93-6.24,7.07-5.19H483l2.18-6.8,4.37-.31.3-5.15h4.06l-.79-1.92-1.09-3.53,1.62-2.75,3.84-1.61,1.61-6.55-3.53-4.1-4.37.26.53-5.19L483,450.94l-3,.26-6,4.93-5.49-1.79-1.09,1.05-3.45-1-2.44-2.48-1.49,3-4.23-.22-2-1.74-1.49,3.45-2.7-1.23-1.75-3.22h-2.22l-2-1.71-3,1.23-3.45.26-2-1.27-1.22.74-.53-1.22Z"/>
      <!-- Fin 43 -->
      <!-- Début 63-->
      <path data-num="63" class="cls-1" d="M407.5,384.53l-3.71,4.19-.26-1.48-3,.26v2.23l-1.7.48-1.74,4.18-2.23,1-4.14-3.23.39,6.41,2.18,2.71,1.09,5.19-3.27,2.44-.78,3.84-3,1.62-5.2,3,.53,2.44,6.28,6.28.57,3.84L387,434v3.84l1.66,1.92.83,4.62-.53,1.88,8.38,2.44,2.23,4.67H404l1.75-1.7,3,1.48,1.49.22,3.71,5.67,3.92.26,1-2,1.1.13,1.13-1.61,4.93-.75,2.7-2.22,3-.26v-1.7l2-1,.53,1.22,1.22-.74,2,1.27,3.45-.26,3-1.23,2,1.71h2.22l1.75,3.22,2.7,1.23,1.49-3.45,2,1.74,4.23.22,1.49-3,2.44,2.48,3.45,1,1.09-1.05-2.14-.7-.83-3.27,5.19-4.89-2.44-9-7.11-4.67-3-7.07L455,420.4l.83-6,2.44-2.45-4.36-3.53.13-1.09-3.84-1.53-1.22-3-4.19.22-3.23-.74-.48-3.45-2.49-1.22-3.18,2-3.71-.75-2.49.27-8.37-1.22-6.89-4-.53-2-2.92-3.23,2-2.7-.74-1.49Z"/>
      <!-- Fin 63 -->
      <!-- Début 65 -->
      <path data-num="65" class="cls-1" d="M240.15,592.6,237.44,594l.48,0,4.63,7.63-3,2.75,2.19,3.27,3.27,4.89-2.71,3.53L237.92,626l-7.37,6.28,1.92,3.84-1.66,1.09-4.06-.83-1.13,9L223.44,647l-.44,5.63.7-.4,4.62,2.75,5.46,4.1.52,3.28,4.36,3.53h3.58l9-3.84,3.79,4.36,5.19,1.4,1.92-3.27,2.45,1.09,5.28.35-.35-14.66h2.75l2.44,1.22,1.74-1.7-.26-2.71,3.45-2L278.41,641l-1.49-1.27-3,1,1.48-2.49-.74-3.18-4.45-3.23.26-2.23L273,625.4l3.18-1.22v-1.74l2-3,1.3-1.83-5-2.58h-6.67l-1-2h-3.44l-1-2.23h-3.18l-1,1h-3.7l-.22-2.23-3-2,1-1,.48-2.44-.74-.74-1.48-4L247.3,599l-3.18-1.75.21-4.66Z"/>
      <!-- Fin 65 -->
      <!-- Début 64 -->
      <path data-num="64" class="cls-1" d="M230.29,593.08l-3.93,2.22-7.9-.26-.74-1.22-5.19,1.74-4,1.22-3-2.22-3.18,1-1-1.26h-3.92L195,595.56l-6.41-.26L185.13,598l-6.19-.48-1.23,1.74-1.48-.52,2-2-3.44-2.7-4.19,3.71-7.16.48-7.85-3.93-1.13,2L148.13,604l-4.88,1.92-3.54.53v3l3.28,3,4.88.26.26,3.53,3.84.31,1.09-2.49,5.2,2.18,3.27.83.78,3.27L160.44,622v5.15l-3.84,1.92-.26,2.44,2.44,2.75,4.36,1.35.83-4.1,2.44-2.7-.26,3.53,1.92,2.75H173l2.18,3,6.54,1.09L188,643h10.34l.56,5.71,7.07,5.45,2.75,3.28,3-1.62,2.71-.56,1.35,1.35,2.48-1.35,4.76-2.62.44-5.63,2.18-1.66,1.13-9,4.06.83,1.66-1.09-1.92-3.84,7.37-6.28,4.36-9.82,2.71-3.53-3.27-4.89-2.19-3.27,3-2.75-4.63-7.63-7.37-.52-.26-.48Z"/>
      <!-- Fin 64 -->
      <!-- Début 40 -->
      <path data-num="40" class="cls-1" d="M185.13,517.08l-8.64,4.45-2.22.08-4.84,25.92-6.29,24-1.92,9.3-1.61,6.54-4.06,7,7.85,3.93,7.16-.48,4.19-3.71,3.44,2.7-2,2,1.48.52,1.23-1.74,6.19.48,3.45-2.71,6.41.26,2.49-1.26h3.92l1,1.26,3.18-1,3,2.22,4-1.22,5.19-1.74.74,1.22,7.9.26,3.93-2.22-1.92-3.36,1.92-5.2L233,581l-.83-4.62,2.18-2.19-3.23-5.45,2.71-3.27,3-.57,2.7,1.09,3.84-3.27,1.36,4.1,1.35,1.92,3-.83-.26-3.53.87-1.92-.65-1.7.74-5.41,3-3-1.48-1.74-3.23-.27-3.71-1.44-5.41.48-1-5.93-3.45-4.19L233,538.8l.52,4.93v1.49l-4.71.21-4.93-1.7-1-6.19-3.45-3.71-2.44-.22-.26-2.22L214,529.64l-4.45-1.22,1.22-1.48v-1.49l-1.48-1.22-1.7-1.48-5,.74-2.93,2.44-2,.26L194.51,524l-4.71,2-2.23-1.48,2-2.44.22-3.23-4.67-1.7Z"/>
      <!-- Fin 40 -->
      <!-- Début 33 -->
      <path data-num="33" class="cls-1" d="M187.14,434.4,182.78,441l-1.36,22.9L177.89,487l-2.49,18-.26,4.67,1.92-6.28,3.8-4.93,5.45,4.93.57,1.61,1.61,2.18-6.81.31-1.09-1.66-2.7,1.09-.57,4.1-3,4.1v6.24l0,.26,2.22-.08,8.64-4.45,4.67,1.7-.22,3.23-2,2.44,2.23,1.48,4.71-2,3.19,2.22,2-.26,2.93-2.44,5-.74,1.7,1.48,1.48,1.22v1.49l-1.22,1.48,4.45,1.22,2.71,1.75.26,2.22,2.44.22,3.45,3.71,1,6.19,4.93,1.7,4.71-.21v-1.49L233,538.8l1.48.48,2.8,3.41,4.36-.7,2-2-.27-2.7-1.74-1.48.52-2.75h2.71l2.7-1.7-1.22-2.49-.74-3.71,2-3.45,4.19-6.41,2.49-3,2.22-.74.48-2.44-3-.26-1.23-2.71,1-2.7,3.49-.74,2.45-.75,2.88-.39-.18-.13-.22-5.41,2.71-2-3.45-2.23L258,496.09l-8.42.26-.75-2-2.44-1.23,2-2.48v-2.71l-1-1.48V485l2.49-1.49.74-4.4,1.48-4-1.48-2.23h-2.71l-1.44-1.7L245,474.1l-2.71-1.92-3.84,1.92-3.27-.52-6.24-6.28-3.84-.26L224,458.31l-7.11-.83-.26-4.1-1.35,1.35h-8.07l.39,1.75,1.92,7.89.52,7.9-1.35,2.18-1.35-6.54-3.84-15-13.92-12.56.31-5.72-2.75-.26Z"/>
      <!-- Fin 33 -->
      <!-- Début 24 -->
      <path data-num="24" class="cls-1" d="M282.9,427.77l-2.44,4.36-3.84.53-.26,6.54-12.83,8.73-.26,9.55-4.93,4.89-2.71,2.48-5.45-.56-3,5.19-.79,1.7,1.44,1.7h2.71l1.48,2.23-1.48,4-.74,4.4L247.3,485v1.48l1,1.48v2.71l-2,2.48,2.44,1.23.75,2,8.42-.26,3.44-4.19,3.45,2.23-2.71,2,.22,5.41,4,2.75.48,5.15,4.19,1.48,2.49-2.22h5.41l3-2.45,1.75.26.48,2h5.45l1.22-1.49,2,.27,2.22,2.44v1.74l-2,1.23.74,1.74,2.71.22,3.44-3.19h3l2,2.23,4.28,1.79.26-.7,2.49-2.44.26-4.1,6-.53,3.84-5.45-1.65-.57-.27-3,4.63-.57.3-2.71L327.1,494l2.44-4.37-2.44-2.7v-3L329,482.3l-2.44-3.83.26-6-6,.26-2.44-1.66,2.18-2.7-3-2.45,2.18-2.74-2.18-1.09v-3.8l5.45-4.93-3-2.44-1.61-4.1-5.76-.83-1.92-1.36,4.1-1.92-1.35-1.87-6-.83-1.39-5.45-8.73-.83-1.92,2.75-1.87.52-2.49-3.27,1.13-3L290.8,428l-7.9-.26Z"/>
      <!-- Fin 24 -->
      <!-- Début 47 -->
      <path data-num="47" class="cls-1" d="M262.53,501.63l-2.88.39-2.45.75-3.49.74-1,2.7,1.23,2.71,3,.26-.48,2.44-2.22.74-2.49,3-4.19,6.41-2,3.45.74,3.71,1.22,2.49-2.7,1.7h-2.71l-.52,2.75,1.74,1.48.27,2.7-2,2-4.36.7.65.78,1,5.93,5.41-.48,3.71,1.44,3.23.27,1.48,1.74-3,3-.74,5.41.65,1.7,1.05-2.18L254,563l4.36-4.37,1.92,2.71,4.62-.83,4.93-.52,2.18-3.84,8.16-.79,4.1,4.06,1.4-1.35,2.7-.83-1.09-3.8,4.1-1.09,5.2-1.09L295.42,548l1.66-1.92,1.35-5.19-3-3.28,1.92-6.23,4.1,2.44,6-1.09-2.75-6-2.18-8.16,5.46-.26,1.09-2.88-4.28-1.79-2-2.23h-3l-3.44,3.19-2.71-.22-.74-1.74,2-1.23v-1.74l-2.22-2.44-2-.27-1.22,1.49h-5.45l-.48-2-1.75-.26-3,2.45h-5.41L271,510.88l-4.19-1.48-.48-5.15-3.79-2.62Z"/>
      <!-- Fin 47 -->
      <!-- Début 82 -->
      <path data-num="82" class="cls-1" d="M335.43,479.21l-5.8,2.7-.83.13.17.26-1.87,1.62v3l2.44,2.7L327.1,494l-2.19,1.39-.3,2.71-4.63.57.27,3,1.65.57-3.84,5.45-6,.53-.26,4.1-2.49,2.44L308,518.3l-5.46.26,2.18,8.16,2.32,5.06,3.49-.13.22,1.44-2,2.22,1.49,3h2.22l2.44,2.7h2.23l1.74-2,.48.52V542l.75,3.23,5.19.21L329.5,541l2.22-.21.74,1.22,1.22,2.7h2l.74-4.93,4.19.53,2.44-3,4,1,5.94-2.71,0,.53,1.92-2-2.49-3.71-1-4.93,3.19-2.7,1.48.48,4.45-4.93,2.45.26,1-1.27H369l1.74-2,.48-1.53-2.22-.3,1.53-4.63L367,507.35l3.49-8.12-4.63-3.44-1.57-10-4.23-1.13-3.1,3.05-1.53-2.7-4.62,4.62-3.1.39-5.36-7.68-6.94-3.09Z"/>
      <!-- Fin 47 -->
      <!-- Début 09 -->
      <path data-num="09" class="cls-1" d="M321.12,617.51l-1.75,1.22-.74,1.48,3.45,2.49,1,1.74-.74,1.44-5.93.53-1.7,2.44.21.74,2.23.74,1.26,1.75-1.48,2.44-1.74-.22-2.71-2.48-3.23-1-3.18.22-5.67,3.44.21,4.71,1.49,1-1,3.66-6.46,1.75-2.44,3v4.93l1,1.49-2.31,2.13,1.48.83,8.42,1.62h3.58l4.62,6,11.74-.57,4.62,7.37,4.11-1.65,12,1.65.88,5,8.46-2,3.1-2.71,4.62-1.17,1.14-2.32,10-.74-6.15-7.33-5,2.71-8.86-7.33,1.92-2.71h6.94l-.78-6.54v-5L356.63,633l-13.52-6.55.78-2.31-2.57-2.88-2.18.92-3,.48-5.45-2.49-1.49-.48,2.23,2.71-1,2.22-4.71-.48-.22-2.48L322.82,618l-1.7-.48Z"/>
      <!-- Fin 09 -->
      <!-- Début 32 -->
      <path data-num="32" class="cls-1" d="M280.15,555.38l-8.16.79L269.81,560l-4.93.52-4.62.83-1.92-2.71L254,563l-3.23-2.75-1.92,4.1.26,3.53-3,.83-1.35-1.92-1.36-4.1L239.53,566l-2.7-1.09-3,.57-2.71,3.27,3.23,5.45-2.18,2.19L233,581l-2.7,3.53-1.92,5.2,2.18,3.84,6.89.48,2.71-1.44h4.18l-.21,4.66L247.3,599l3.23.48,1.48,4,.74.74-.48,2.44-1,1,3,2,.22,2.23h3.7l1-1h3.18l1,2.23h3.44l1,2h6.67l5,2.58.44-.61,2.71-1.49,4.93-6.41,9.16.74,3.92,2.71,1.27-1.75,2-5.89,2.45-5.67,5.19-2.22,2.48-1-.74-2.22-2.48-.26-1-2.45h-2l-3.19-3.23.22-2.22-4.19-4.19-.74-2.66-2.7,1.18-.74-1.49,1.74-2.7-2-2v-3.45l-1.7-1.75-5.45-.26V565.2l3-2.23v-2.48L295.2,559l-1.74-1-2,1h-4l-1.23-1.13-.65.22-1.4,1.35-4.1-4.06Z"/>
      <!-- Fin 32 -->
      <!-- Début 31 -->
      <path data-num="31" class="cls-1" d="M332,570.13l-4,1.48-1.22,2-1.48-1.7-2.71-.26-.52,2.49-1.7.7,2.44,1.26-1.7,2.71-6.2,1.74-2.7-3.23h-2.44l-2,1.22h-7.16l-.74.31.74,2.66,4.19,4.19-.22,2.22,3.19,3.23h2l1,2.45,2.48.26L314,596l-2.48,1-5.19,2.22-2.45,5.67-2,5.89-1.27,1.75-3.92-2.71-9.16-.74-4.93,6.41L279.89,617l-1.74,2.44-2,3v1.74L273,625.4l-2.49,4.19-.26,2.23,4.45,3.23.74,3.18L274,640.72l3-1,1.49,1.27,1.22,5.15-3.45,2,.26,2.71-1.74,1.7-2.44-1.22h-2.75l.35,14.66,11.08.74.56-13.39,3.8.56,5.63,3.27,2.31-2.13-1-1.49v-4.93l2.44-3,6.46-1.75,1-3.66-1.49-1-.21-4.71,5.67-3.44,3.18-.22,3.23,1,2.71,2.48,1.74.22,1.48-2.44-1.26-1.75-2.23-.74-.21-.74,1.7-2.44,5.93-.53.74-1.44-1-1.74-3.45-2.49.74-1.48,1.75-1.22,1.7.48,2.75,3.71.22,2.48,4.71.48,1-2.22-2.23-2.71,1.49.48,5.45,2.49,3-.48,2.18-.92-.53-.56,3.5-1.58.74-4.23L349.3,613l-1.18-2.7,3.89-3.49,1.92,3.49,5.76-1.92,1.09-.18.08-1.78v-3.49l-3,.52-3.71-1L351,598.53l-1.22-1.75-6.41-2.7-1.49-2.23,2-.74v-2.7l-2-2.23-2.48-4-.22-3.44-.74-.48-3-3.49-1.22-3.67-2.23-1Z"/>
      <!-- Fin 31 -->
      <!-- Début 82 -->
      <path data-num="82" class="cls-1" d="M297.34,531.39l-1.92,6.23,3,3.28-1.35,5.19L295.42,548l1.14,3.27-5.2,1.09-4.1,1.09,1.09,3.8-2.05.61,1.23,1.13h4l2-1,1.74,1L292,560.49V563l-3,2.23v3.18l5.45.26,1.7,1.75v3.45l2,2-1.74,2.7.74,1.49,3.44-1.49h7.16l2-1.22h2.44l2.7,3.23,6.2-1.74,1.7-2.71-2.44-1.26,1.7-.7.52-2.49,2.71.26,1.48,1.7,1.22-2,4-1.48,1.79.83,1.4-2.32-2.45-2.7h4.67l1.49-2.71,3.22-3h-3.22l1-4.19,8.38-1,3.22-2,3.93-1.48,1.27-1.27-1.53-3.92,2.22-4.45-3.92-.26-.48-6.16L347,538.28l-4-1-2.44,3-4.19-.53-.74,4.93h-2l-1.22-2.7-.74-1.22-2.22.21-4.19,4.45-5.19-.21-.75-3.23v-2.45l-.48-.52-1.74,2h-2.23l-2.44-2.7h-2.22l-1.49-3,2-2.22-.22-1.44-3.49.13.43,1-6,1.09-4.1-2.44Z"/>
      <!-- Fin 82 -->
      <!-- Début12  -->
      <path data-num="12" class="cls-1" d="M401.35,487.67l-7.72,6.59v6.54h-1.92l-.79,6.15-1.92.79-1.52,3.45H379l-.74-1.14h-3.89L372,513.89l-.83-.09-.48,1.53-1.74,2h-4.93l-1,1.27-2.45-.26-4.45,4.93-1.48-.48-3.19,2.7,1,4.93,2.49,3.71-1.92,2,.44,5.63,3.92.26-2.22,4.45,1.74,4.45,2.23-1.27,1,2.23,3.19-3.19,4.71-.26,4.67,3.45,8.16,1.48,3,5.19,4.19,2,2.23,5.67-.27,2.22,2.71,5v2.7l4.93,6.41,4.71,2.45,3-.74,1.48-2,2.23.53,5.1,3.27H421l-.4-8.07v-2.71H423l4.23,2.31h4.23l-.74-4.62,2.31-2,4.62-.75v-3.88l5-2.31-1.18-5.37h-4.23l-3.84-.78-.78-3.1,3.1-.74v-3.88l3.05-2.71-2.31-1.13-6.55,1.13.4-3.05-4.63-2-1.18-9.25v-6.54l-3.84-2.7.4-5.41-8.12-10-.78-7.72h-2.66l-1.18-7.72-5.41.79-.74-5-.79-1.18Z"/>
      <!-- Fin 12 -->
      <!-- Début 81 -->
      <path data-num="81" class="cls-1" d="M368,548.4l-4.71.26-3.19,3.19-1-2.23-2.23,1.27-.21-.53-1.27,1.27-3.93,1.48-3.22,2-8.38,1-1,4.19h3.22l-3.22,3-1.49,2.71h-4.67l2.45,2.7-1.4,2.32.44.17,1.22,3.67,3,3.49.74.48.22,3.44,2.48,4,2,2.23v2.7l-2,.74,1.49,2.23,6.41,2.7,1.22,1.75,3.23,3.93,3.71,1,3-.52v3.49l-.08,1.78,1.61-.21-.39,1.92h5.41l5,1.57.39-5h2.31l8.46,1.53h8.12l6.15-1.92,1.57-5-4.23-3.88,1.13-3.84,2.32-3.45,3.83,2.66,10-3.44,1.57-3.1-5.1-3.27-2.23-.53-1.48,2-3,.74-4.71-2.45-4.93-6.41v-2.7l-2.71-5,.27-2.22L388,560.49l-4.19-2-3-5.19-8.16-1.48L368,548.4Z"/>
      <!-- Fin 81 -->
      <!-- Début 01 -->
      <path data-num="01" class="cls-1" d="M525,360.93l-3,.31-1.92,3.53L515,384.93l-.74,1.66-.53,6.37L512.21,395v9.2l-.87,2.1,5.32,3.22,2.09.31,3.27,3,.57,4.75,3.58-1.18,5.54,1.62.09-1.05h2.66l3.84,3.58,3.58-1.79,1.78-5.32,1.79-2.1,2.36.31,2.35,2.09,1.23,3.84,11,13.35,3.27-2.35.57-5.07,3.57-.61V414l1.79-1.48.57-8,.7.56-.09-2.92-1.48-2.7.61-7.68,2.66,1.48,1.48-2.7,2.66-.88,2.75-2.18h-3v-5.19l3.27-1.92,4.88-.52.31-2.75L585.24,376l4.1-5.19-.56-1.62-4.67-2.49-11.35,12.48h-7.89v-3.27l-4.37-2.18-5.19,5.71-4.1.57V376.2l-3.53-1.61L542.22,367,537.29,365l-1.61-3.53-2.75-.57-2.7,1.92-2.18.57-3-2.49Z"/>
      <!-- Fin 01 -->
      <!-- Début 38 -->
      <path data-num="38" class="cls-1" d="M545.45,411.32l-1.79,2.1-1.78,5.32-3.58,1.79L534.46,417H531.8l-.31,3.88,3.88,3.28-5.93,7.67-7.72,1.79-5.93,2.1,3.84,3.84.91,1.78-5.93,3-.61,8.6-.18.08,1.66,3.45,4.76,1.48,3.27-1.17,3.84-2.67,5.06,4.15h4.14l3,4.14-1.22,3,.61,4.19-1.48,4.14.61,1.49,2.05-.61,4.75,1.48,6.24,1.79,2.66-1.79,1.18-2.05h.92l.26,22.2,1.48,1.49h3.88l3.54,2.09,2.66,2.1,2.7.26,1.75,1.48,4.93.57.35-.83-2.18-1.09v-3.27H582l2.18-2.18-1.35-2.45,3.54-2.75,2.48,1.09,3.54-3,6.23,1.09,2.19-2.44,5.19.26v-6l-2.18-1.09-1.09-3.54-5.72-.57-.83-1.35,1.09-5.71,1.92-1.66-1.57-2.14-3-1.79-1.78,1.79.61-2.4v-2.35l-2.4-2.4,1.22-5.63,2.66-1.48-.31-3.84L589,442.78h-2.1l-1.48,2.05-3.53-4.71-2.1.26L578,444.26l1.22,2.36-.91.91L576,445.74l-6.85-1.48-3.23-5.93v-2.4l-3.27-3.54-.35-1.52-10.9-13.31-1.23-3.84-2.35-2.09-2.36-.31Z"/>
      <!-- Fin 38 -->
      <!-- Début 74 -->
      <path data-num="74" class="cls-1" d="M612.77,366,606.53,367l-6,4.89-1.61-2.45-3,.27-2.75,6,.3,2.44,3,2.44L591,384.23l-3.54,3.27h-6l-2.75,2.18-2.66.88-1.48,2.7-2.66-1.48-.61,7.68,1.48,2.7.09,2.92,2.27,1.79v7.72l5.36.88,2,3.88,4.76.57.87-1.75h2.4l4.14,4.45,1.49,1.49,4.75-.92,1.18-2.36,1.18-4.75,2.66-2.1,2.09-6.19,2.67-1.79,2.09.57.57,1.79-1.49,1.78,2.67,3.28H619l2.7,4.45-.61,1.48,2.66-1.79,2.09-2.35,1.84.21.13-4.75,9.29-3.84,1.09-2.71-.57-6-6-6.24L629.7,393v-6.55l-5.19-2.49-.27-2.18,3-3.27v-3.79l-4.93-5.2-.26-3.53Z"/>
      <!-- Fin 74 -->
      <!-- Début 42 -->
      <path data-num="42" class="cls-1" d="M464,382.48l-4.93.83-.79,3,1.92,3.8.52,15.53-6.54.31-.26,2.44,4.36,3.53-2.44,2.45-.83,6,3.27,4.36,3,7.07,7.11,4.67,2.44,9-5.19,4.89.83,3.27,7.63,2.49,6-4.93,3-.26,8.73,3.79-.53,5.19,4.37-.26,3.44,4,2.53-.7,4.71-.87,1.23-5.36,6.5-3.84.61-8.6.22-.13-3.19-.48-3,1.18-2.4-1.48,3-3.54-.87-2.66-9.21-1.48-7.72-7.11v-2.4l1.79-1.49v-2.05l-2.05-1.22,1.74-2.66V414.9l-3.53-3.27v-3.27L487,406v-2.66l-1.18-4.45,1.79-1.79.31-5.32h5.63L495,390l-1.79-3v-2.66l-1.48-1.18-1.05,5.59h-3L485.51,391l-1.66-1.66-8.73-1.35-3.27,1.92h-2.18l-.52-1.92-4.1-.83-.27-4.36-.82-.27Z"/>
      <!-- Fin 42 -->
      <!-- Début 69  -->
      <path data-num="69" class="cls-1" d="M508.94,378.69l-3,.26-2.49,2.44-1.61-2.18-2.44,2.18-3.32-2.18H493.4l-1.09.83-.56,3.14,1.48,1.18V387l1.79,3-1.48,1.79h-5.63l-.31,5.32-1.79,1.79,1.18,4.45V406l2.4,2.36v3.27l3.53,3.27v3.84l-1.74,2.66,2.05,1.22v2.05l-1.79,1.49v2.4l7.72,7.11,9.21,1.48.87,2.66-3,3.54,2.4,1.48,3-1.18,3.19.48,5.71-2.84-.91-1.78-3.84-3.84,5.93-2.1,7.72-1.79,5.93-7.67-3.88-3.28.22-2.83-5.54-1.62-3.58,1.18-.57-4.75-3.27-3-2.09-.31-5.32-3.22.87-2.1V395l1.48-2.05.53-6.37-.92,2.18-1.92-.26-1.05-5.46-1.39-4.36Z"/>
      <!-- Fin  69 -->
      <!-- Début 73 -->
      <path data-num="73" class="cls-1" d="M572.11,404.52l-.57,8L569.75,414v8.9l-3.57.61-.57,5.07-3.27,2.35-.05,0,.35,1.52,3.27,3.54v2.4l3.23,5.93,6.85,1.48,2.36,1.79.91-.91L578,444.26l1.79-3.88,2.1-.26,3.53,4.71,1.48-2.05H589l5.62,5.63.31,3.84-2.66,1.48-1.22,5.63,2.4,2.4v2.35l-.61,2.4,1.78-1.79,3,1.79,1.57,2.14,4.93-.52,1.62,1.61.83,3.84,4.88-.57.57-4.1,2.44-1.09,5.24.26-.09-.17,8.16-3.27,3,1.92h3l.26-3.28,3.53-1.92,1.36-1.61,7.11-2.75.83-4.62-1.4-2.19,3.84-6.54-3.53-1.35-1.09-3.84-7.38-4.36s.44-8.36-.26-9.86a.73.73,0,0,0-.09-.13l0-.05h0v0h-.13c-1.1.27-5.15.57-5.15.57l-4.1-4.67.13-4.5-1.84-.21-2.09,2.35-2.66,1.79.61-1.48-2.7-4.45h-4.45l-2.67-3.28,1.49-1.78-.57-1.79-2.09-.57L608,407.79,605.92,414l-2.66,2.1-1.18,4.75-1.18,2.36-4.75.92-1.49-1.49-4.14-4.45h-2.4l-.87,1.75-4.76-.57-2-3.88-5.36-.88v-7.72l-3-2.35Z"/>
      <!-- Fin 73 -->
      <!-- Début 07 -->
      <path data-num="07" class="cls-1" d="M513.82,452.94l-6.32,3.76-1.23,5.36-4.71.87-2.53.7.09.13-1.61,6.55-3.84,1.61-1.62,2.75,1.09,3.53.79,1.92h-4.06l-.3,5.15-4.37.31-2.18,6.8h-6.54l-7.07,5.19-3.93,6.24.66.83,1.92,10,4.62,5-.78,5.76,5.8,3.49v7.72l3.1-1.57,6.54,4.28,3.1,1.13.74-5.41,3.88-.74,1.14,4.23,3.88-.39.74-4.23,8.86,5,1.44-2.92,3.75-.57.31-5.76-.88-1.22-1.18-.26v-2.09L514,524l-1.49-2.35.88-5.33,3.57-4.18v-5.89l-1.48-6.85,2.66-.57.61-3,2.66-5.06L522.9,487,520.54,481l-1.48-4.76L517,468V456.87l-1.48-.48-1.66-3.45Z"/>
      <!-- Fin 07 -->
      <!-- Début 26 -->
      <path data-num="26" class="cls-1" d="M527.35,454l-3.84,2.67-3.27,1.17-3.28-1V468l2.1,8.29,1.48,4.76L522.9,487l-1.49,3.84-2.66,5.06-.61,3-2.66.57,1.48,6.85v5.89l-3.57,4.18-.88,5.33L514,524l-.88,2.1v2.09l1.18.26.88,1.22-.31,5.76,3.62-.52,1.61,1.92-.78,5.45,1.09,1.36,4.06-4.11,3.58-.26.78-2.18-4.62-.57-.79-4.88,3-4.63,3.84-.3L534,530.3l-3.79,5.14,1.09,1.92,5.45.57,3.53-3-1.92,4.1.57,3.27,5.72.53,7.63.56,1.09,3.54,4.1,3,3.54.26,2.44-2.18,1.4-4.1,2.18,1.92,1.61,1.92,1.09-10.13-2.7-.52-1.66-3.53-9.25-2.49L555,526.46l3.31-2.19-2.75-1.92.57-2.44,4.36.26,3.8,1.92,3-3.53-3-2.44.26-3.28,1.66-5.19,5.71-.56,4.63-1.88.48-1.09-4.93-.57-1.75-1.48-2.7-.26-2.66-2.1-3.54-2.09h-3.88l-1.48-1.49-.26-22.2h-.92L553.74,476l-2.66,1.79L544.84,476l-4.75-1.48-2.05.61-.61-1.49,1.48-4.14-.61-4.19,1.22-3-3-4.14h-4.14L527.35,454Z"/>
      <!-- Fin 26 -->
      <!-- Début 17 -->
      <path  data-num="17" class="cls-1" d="M198.39,372.14l-3.84.27-8.33,5.06,2,1.83-4.36,3.53-.53,2.75-4.1.53-2.18-2.45-5.45-.52-.57-2.75-3.27-2.18-4.63,1.66,3,4.36H170l3.84,2.44,3,2.45,5.71-.27,1.09,2.45,3.8.83,1.4,3.79,2.44,1.09-.26,3-3.27-.52-1.1,1.61,2.45,3.54-1.35,6-3.28-.26.26,3.79.83,1.35h-3.84l-.52-2.18,2.44-3.27-.82-1.88-1.36-1.09-.56-6.54-4.63-.57-3.79-4.62-.57,9.55,6.28,4.63.52,5.19,1.09,6,.57,6,3.27-.31,5.72,4.67,3.84,2.18.26,2.71,3,.56,8.73,8.73,2.05,9.42h8.07l1.35-1.35.26,4.1,7.11.83,1.09,8.73,3.84.26,6.24,6.28,3.27.52,3.84-1.92L245,474.1l2.18-4.62,2.18-3.8-5.8-3.92-1.79-2.4-2.4-2.66-5.63.91-1.79-.91-.26-1.49,3-1.18v-.56l-2.1-.61-1.48-1.18,3.58-3v-2.09l-1.79-1.79,1.18-1.18.61-3-2.1-2.05-1.78-3-3.23-3-2.4-1.48,2.09-2.4-1.18-.26-.3-6.24-2.4-.92,3.27-1.74h3.88l1.75-1.49h3.27l.61,1.49,3,.26,2.05-.88.61-5.62,2.36-8.6.08,0-2.13-2-.62-3L237.62,398l-5.07-3.53-6.23.57-3.84-5-5.63-.31-4.45-3.27v-1.79l-3-3.23-.13-4-4.1-3.05L200,376.51l-1.62-4.37Z"/>
      <!-- Fin 17 -->
      <!-- Début 19 -->
      <path data-num="19" class="cls-1" d="M361,423.8l-1.18,3-4.45.87-1.74,3h-2.1l-3-.88-2.1,3.54-3.23.3-2.09,3.84h-2.66l-2.1,2.1L331,438.9l-1.79,3-2.05-.26-3.57,4.45-3.28-1.22-1.52,3.1,1.17,3,3,2.44-5.45,4.93v3.8l2.18,1.09-2.18,2.74,3,2.45-2.18,2.7,2.44,1.66,6-.26-.26,6L328.8,482l.83-.13,5.8-2.7,6.94,3.09,5.36,7.68,3.1-.39,4.62-4.62,1.53,2.7,3.1-3.05,4.23,1.13.13.92,3.54-2.49-1.1-2.7-1.65-1.66,2.18-2.71h2.18l1.4-4.36,1.09-2.18-.83-4.93,3.53-4.89,4.93-3,.26-7.63,2.45,1.35,2.74,3h2.71l1.66-1.92-1.36-3.27,1.36-4.89-.83-4.62L387,437.85V434l2.49-4.06-.57-3.84-.61-.61-2.75,2.14h-5.37l-1.74,2.66h-3.27l-2.66-2.66-1.23-1.79h-6.8l-1.48-2.05Z"/>
      <!-- Fin 19 -->
      <!-- Début 23 -->
      <path data-num="23" class="cls-1" d="M347.51,368.31l-1.61,4.36-4.93-.26-1.09-.57-3.27.3-2.45-1.65-4.71,5.41.09,4-3.27,6.5.61,3.27,3.53.88,2.4,5.93,2.36,2.4-.88,11.25,5-1.48,2.1,2.66L338.13,414v2.71l2.66.26,4.76-.26,1.48-2.1h1.18l-.57,3.58,3.84,1.75,3.58,2.4v1.48H353l.61,3.53,1.39.88.35-.57,4.45-.87,1.18-3h2.1l1.48,2.05h6.8l1.23,1.79,2.66,2.66h3.27l1.74-2.66h5.37l2.75-2.14-5.67-5.67-.53-2.44,5.2-3,3-1.62.78-3.84,3.27-2.44-1.09-5.19-2.18-2.71-.52-8.46-3-7.07-3-1.09-2.18-3.84-1.92,2.44-1.88-2.44v-3.27l-3.27-4.62-9,1.09L361.17,370l-13.66-1.65Z"/>
      <!-- Fin 23 -->
      <!-- Début 87 -->
      <path data-num="87" class="cls-1" d="M324.35,372.41l-2.45,2.44-6.85-.52-.78-.18-5.19,1-3,2.49v3.27l-6,.26-3.53,4.1-2.18,1.62,1.87,2.18L296,396.4l-1.35,2.44,2.18,2.45,3.79.3.83,3.8.26,2.44-4.88,1.09-2.44.83.52,6.81-3.27,2.18-2.75.83-1.35,3.84-2.19.26-.91,4.14,6.37.22,1.39,2.71-1.13,3,2.49,3.27,1.87-.52,1.92-2.75,8.73.83,1.39,5.45,6,.83,1.35,1.87-4.1,1.92,1.92,1.36,5.76.83.44,1.09,1.52-3.1,3.28,1.22,3.57-4.45,2.05.26,1.79-3,5.32.61,2.1-2.1h2.66l2.09-3.84,3.23-.3,2.1-3.54,3,.88h2.1l1.39-2.4-1.39-.88L353,423.8h2.09v-1.48l-3.58-2.4-3.84-1.75.57-3.58H347l-1.48,2.1-4.76.26-2.66-.26V414l3.28-2.66-2.1-2.66-5,1.48.88-11.25-2.36-2.4-2.4-5.93-3.53-.88-.61-3.27,3.27-6.5-.09-4-.74.87-4.36-4.36Z"/>
      <!-- Fin 87 -->
      <!-- Début 86 -->
      <path data-num="86" class="cls-1" d="M253.45,309.41l-5.19,5.45L247,317.13l.44,6.72,2.35-.31.31,3,.92,4.76,1.48,3.27-1.79,2,.87,1.48-1.18,2.1V341l2.1,2.4v1.48l-.92,2.36-3,4.45,3,1.17.92,2.1-1.22,3.23-.26,1.48-1.79,3v2.09l1.17.31v6.24l2.1,1.48-.92,2.05.31,1.79,2.35,2.66,1.23-1.79V376l2.35-1.18,1.79,1.18v4.45l-1.79,2.09-1.48,3.54,2,3.27,4.19,1.18-.92,2.7-3.88.65,3.58,4.37,4.75-.31,4.15-1.48,4.18,2.4,1.49-1.18-.31-3.88,2.36-1.79,2.09,3.58,1.75,1.79,5.06-2.1,2.09-2.35h4.71l2.45,1.22.17-5.15-1.87-2.18,2.18-1.62,3.53-4.1,6-.26V377.6l3-2.49,7.37-1.35.52-4.1L314,368l-1.66-5.71-4.36-.57-2.71-2.7-5.19-4.1,1.09-3.28v-5.19l-4.93-4.88-.52-3.84-4.67-4.89-1.61-6.54-1.92-.83-2.19-3-2.18,1.35.57,3-7.11,1.66h-8.16l.26-3.28v-5.19l-6.54-1.92v-3.27L257,313.77l-1.09-4.36Z"/>
      <!-- Fin 86 -->
      <!-- Début 16 -->
      <path data-num="16" class="cls-1" d="M277.93,392l-2.36,1.79.31,3.88-1.49,1.18-4.18-2.4L266.06,398l-4.75.31-3.58-4.37-1.14.22-4.75,2.36-3.58.92v2l-2,2.4.57,1.48-2.66,1.48-2.36,8.6-.61,5.62-2.05.88-3-.26-.61-1.49h-3.27l-1.75,1.49h-3.88l-3.27,1.74,2.4.92.3,6.24,1.18.26-2.09,2.4,2.4,1.48,3.23,3,1.78,3,2.1,2.05-.61,3-1.18,1.18,1.79,1.79v2.09l-3.58,3,1.48,1.18,2.1.61V454l-3,1.18.26,1.49,1.79.91,5.63-.91,2.4,2.66,1.79,2.4,5.8,3.92.83-1.39,5.45.56,2.71-2.48,4.93-4.89.26-9.55,12.83-8.73.26-6.54,3.84-.53,2.44-4.36,1.53,0,.91-4.14,2.19-.26,1.35-3.84,2.75-.83,3.27-2.18-.52-6.81,2.44-.83,4.88-1.09-.26-2.44-.83-3.8-3.79-.3-2.18-2.45L296,396.4l.09-2.22L293.63,393h-4.71l-2.09,2.35-5.06,2.1L280,395.62,277.93,392Z"/>
      <!-- Fin 16 -->
      <!-- Début 79 -->
      <path data-num="79" class="cls-1" d="M243.64,314.6l-7.38.26-6.8,1.35-7.38.57v3.8l-3.79,2.48-8.47-1.92-5.71,2.45,2.7,3.84v3.27l6.55,5.45-1.62,3.54,4.37,4.88-1.92,2.49,2.7,4.06.83,7.63-1.61,2.18L218,364.2l-1.92,3.58.26,2.18,2.18-1.65,2.7,2.74-3.79,2.45-1.35,1.61-3,.83-3.54,1.66-.26-.22.13,4,3,3.23v1.79l4.45,3.27,5.63.31,3.84,5,6.23-.57,5.07,3.53,3.83,1.79.62,3,2.13,2,2.58-1.44-.57-1.48,2-2.4v-2l3.58-.92,4.75-2.36,5-.87.92-2.7-4.19-1.18-2-3.27,1.48-3.54,1.79-2.09V376l-1.79-1.18L255.42,376v1.48l-1.23,1.79-2.35-2.66-.31-1.79.92-2.05-2.1-1.48v-6.24l-1.17-.31v-2.09l1.79-3,.26-1.48,1.22-3.23-.92-2.1-3-1.17,3-4.45.92-2.36v-1.48l-2.1-2.4v-.87l1.18-2.1-.87-1.48,1.79-2L251,331.27l-.92-4.76-.31-3-2.35.31-.44-6.72-.57,1-1.92-1.61-.82-1.92Z"/>
      <!-- Fin 79 -->
      <!-- Début 22 -->
      <path data-num="22" class="cls-1" d="M87.36,166.35l-2.49,1.92-6.23.79L77.24,171l-4.36-3.27-5.72,3.83,2.18,3-3.79,5.19-.18-.08-1.57,7.32,3.36.22-.22,2.93,2.49,1.57-2.27,2.27-1.57,1.13.22,2.66,3.4,1.14-3.18.91v3.36l2,2.71.43,7.89-1.35,1.35,1.14,4.06,4.27,1.14L73,222.5l2.7.22L78,221.15l1.35,1.35,5.2,2.27,4.27-2.27,1.09-2.22,3.62-.27,4.06,3.63,3.84-.92,3.36,3.4h1.57l1.57,2h3.18l1.1-1.57,1.35,2.92,3.4,1.35,4.28-2.7v-2.92l3.14-1.14h2l2.49,4.54,5.41.44,2.71-3.41,2.92-6.28,3.84-1.35,2-2.93,2,2,4.27-.87,1.35-12.39,1.36-5-1.36-2.71-2.26-.87L149.62,187l-1.75,2-5.19-.57-.52,3-3.27.26-.27-3.8-2.74-.82L134,189.26V183.8l-3.28,2.45-4.88-.83-1.66,3.27-10.08,5.45v2.75h-2.18V192l-5.72-2.7.53-4.93-5.15-3.8v-4.62l-3.84-.83.26-4.36-3-.27.26-3H89.8L89,170.15l-1.62-3.8Z"/>
      <!-- Fin 22 -->
      <!-- Début 85 -->
      <path data-num="85" class="cls-1" d="M183.34,314.82l-1.57,2.92h-4.49l1.79,1.83-1.36,4.5-4.05,1.35-1.57-1.13.69-4.5-1.13-2.49h-2.49l-1.79,2,.88,6.33,2.05,2.92-2.05,2.27-3.8-.7-5.63-1.35-1.57-4.28-3.62-.43L148.92,322l-1.13-2.71L142.64,316l-8.12,10.47-.26,6.55,8.42,8.16-.26,2.44h2.44l5.19,15.57,5.46,2.71L161,367.3h6.28l2.45,5.46h6l2.7,4.1,6,3,.26-3.84,1.53,1.44,8.33-5.06,3.84-.27,1.62,4.37,5.19-2.18,4.36,3.27,3.54-1.66,3-.83,1.35-1.61,3.79-2.45-2.7-2.74L216.37,370l-.26-2.18L218,364.2l-1.92-3.27,1.61-2.18-.83-7.63-2.7-4.06,1.92-2.49-4.37-4.88,1.62-3.54-6.55-5.45v-3.27l-2.7-3.84.52-.22-3.71-3.14h-7l-2.26-1.35-3.15-.44-3.62-3.4-1.57-.22Z"/>
      <!-- Fin 85 -->
      <!-- Début 50 -->
      <path data-num="50" class="cls-1" d="M156.86,102.53l-1.09,2.74,5.76,4.63v6l-2.18,2.7L160.7,120l.83.56-.57,5.2,1.92,4.36,6.28,7.07,1.36,6.28,1.35,1.92v9.81l3.27,6.55v7.63l-3.53,7.07,3.79,9.82,6,1.35.53,2.75-3,1.35h-5.15l.83,3.45,1.61,5.19,4.67,4.1,2.18.52,2.19-3,2.44-.31,3-3.53,2.74,2.18h3.28l2.18,1.09V202l4.62.57,2.75-2.18,4.06,1.66.09.17,4.66-4,1.57-5.19-.43-2.27.65-2.66-2.7-2.71-7-4.53-5.15-.44-5.19-6.54,4.27-1.57,1.79-3.36-2.22-2.05,2-1.79,2,1.57,3.62-2.23,2.27-3.62.87-3.58-1.57-3.18.92-1.13-2.05-3.36,2.27-2.93-1.79-2.27L207,147.29l-3.14-1.79-5.19-5.19-.22-2.23,1.57-1.57-.48-3-2.58.66-.26-6.55-7.11-8.42,2.18-5.45h3l-2.7-7.38-11.74-.56-6.28,4.36L167,105.54l-10.12-3Z"/>
      <!-- Fin 50 -->
      <!-- Début 56 -->
      <path data-num="56" class="cls-1" d="M68.12,218.53l-4.54,2.18H60.4L57,223.42l.22,2,2,5.2,1.13,4,7,1.14,3.4,2.7,1.36-1.61,2.22,3-1.13,1.35-.22,4H71l-1.57,2.49H66.25l-1.31,5.36L68,258l4.36,1.09L74,256.62l-.79,3,3.8,1.65,4.93,4.89,1.61,3L83,272.67l-.57,3.58,3.27,2.44,1.66-1.92-1.66-2.18v-4.88l3.28.78,1.09-3.27.83,1.92,3.53,3,1.66-2.75-1.66-3.79,3,4.1,3.79-.57-.78-1.92,3.53.83,2.71,3.27-1.35,2.18-3.54-1.09-4.1-1.92-2.18,2.75,3.27,1.09,2.44,3.8L116,276.77l3.8.83-1.88,1.62.26,2.48.53.4,1.17-.22,2.45-2.44,1.61,1.87h4.36l5.2-2.7,7.63-3,.26-7.64,1.62-.87-2.88-5.41,2.48-2-.43-1.35-1.57-.92,2.44-1.13,2.27-2.71-.22-2.7h-2.92l-.7-2.66,2-2.71-2.27-4.05-3.36-2.05H134l-1.35-.44v-1.79l2-1.83,1.13-4.5-.65-2.92-.92,1.14-5.41-.44-2.49-4.54h-2l-3.14,1.14v2.92l-4.28,2.7-3.4-1.35-1.35-2.92-1.1,1.57h-3.18l-1.57-2h-1.57l-3.36-3.4-3.84.92L93.51,220l-3.62.27L88.8,222.5l-4.27,2.27-5.2-2.27L78,221.15l-2.27,1.57L73,222.5l-.44-2.22-4.27-1.14-.18-.61Z"/>
      <!-- Fin 56 -->
      <!-- Début 29 -->
      <path data-num="29" class="cls-1" d="M46.7,174.51l-3,3.27-3.27-1.35-6,.57-1.09,2.7-3.53.83-.57-3-6.24.83v1.92l-4.36.26-1.92-1.35-2.18,1.09L14,183.54l-7.33.26-3.84,4.63,3.27,2.44-4.36,3.58,1.35,2.44-1.09,6,4.36.57L8,201.78l.83,1.09,10.34-1.35L26,196.63l-6,5.72.52,2.7L26,202.61l-1.09,3.84,6,.26-.26,1.61-6.55-.26-5.19-1.35-6.28-3-3.8,4.36,4.89,1.66-.26,7.33L14.81,216l3-4.63,5.71,3.27,2.75.57,1.09,4.36-1.65,3-3.54-.26H18.91l-5.45.83-9.3.52-1.87,2.49L5,227.69l3-.26,2.45,2.18,3.53-.26,5.76,6.55L21.09,243l-1.92,3.84,5.72,1.09,6.28-.3,1.35-2.45-2.44-3.27L32.52,243,35,242.7l4.36,2.44,2.71-.52V240l1.09,4.67,3.53,5.72,7.64.52.3-1.61,1.88,2.7,4.66.83h3.54l.22.3,1.31-5.36h3.18L71,245.23h2l.22-4,1.13-1.35-2.22-3-1.36,1.61-3.4-2.7-7-1.14-1.13-4-2-5.2-.22-2,3.36-2.71h3.18l4.54-2.18-1-3.45,1.35-1.35-.43-7.89-2-2.71v-3.36l3.18-.91-3.4-1.14-.22-2.66,1.57-1.13,2.27-2.27-2.49-1.57.22-2.93-3.36-.22,1.57-7.32L60.88,177l-7.64.26v5.45H51.06l-.52-2.44-3.27.52-.57-6.28Z"/>
      <!-- Fin 29 -->
      <!-- Début 35 -->
      <path data-num="35" class="cls-1" d="M152.24,184.07l-2.62,3,1.53,8.25,2.26.87,1.36,2.71-1.36,5-1.35,12.39-4.27.87-2-2-2,2.93-3.84,1.35L137,225.64l-1.79,2.27.65,2.92-1.13,4.5-2,1.83V239l1.35.44h3.84l3.36,2.05,2.27,4.05-2,2.71.7,2.66h2.92l.22,2.7L143,256.27l-2.44,1.13,1.57.92.43,1.35-2.48,2,2.88,5.41,5.49-2.92,16.89-.83,1.09-3,2.75-2.71,6-.83.27-3,4.1.57,2.44,3.27,5.5,1.35,1-2.18,1.4-4.93,3.53-8.72,1.92-1.09,4.63.56v-7.37l-1.92-1.92v-7.9l-.83-2.7v-4.36l2.75-2.75v-5.46l-1.35-1.09.26-7.63-2.18-1.09h-3.28l-2.74-2.18-3,3.53-2.44.31-2.19,3-2.18-.52-4.67-4.1-1.61-5.19-.83-3.45H160.44l-4.93-3,3.27-4.36-6.54-.26Z"/>
      <!-- Fin 35 -->
      <!-- Début 44 -->
      <path data-num="44" class="cls-1" d="M175.45,253.78l-.27,3-6,.83-2.75,2.71-1.09,3-16.89.83L141.37,268l-.26,7.64-7.63,3-5.2,2.7h-4.36l-1.61-1.87-2.45,2.44-1.17.22,1.39,1-5.19,4.62,1.09,1.09,1.09,2.18-2.75,3.84,3,1.62,5.2,1.09.52-2.18,3,3.84H131l3.53-3.84h4.63l-4.89,2.44.26,2.75,1.09,2.44-3,3h-3.27l.57,4.1,6-1.09,7.11,6.55-.35.43,5.15,3.36,1.13,2.71,4.71,2.05,3.62.43,1.57,4.28,5.63,1.35,3.8.7,2.05-2.27-2.05-2.92-.88-6.33,1.79-2h2.49l1.13,2.49-.69,4.5,1.57,1.13,4.05-1.35,1.36-4.5-1.79-1.83h4.49l1.57-2.92,1.57.22,3.62,3.4,2.62.35.09-2.84L189,313h-2l-.69.22-1.36-.66,1.14-1.13v-2l2.27-.66,1.35-3.14-1.14-1.13-.21-3.84h-2.93L182.47,297v-2.66l3.14-1.62,5.63-1.09,8.77.22,2.7-1.83-.91-5.63-4.06-3.8-4.93.66-1.35-1.14-.22-4,3.58-3.18-2.71-3.36-1.79-4.76L187.4,263v-3.14l-.31-1-5.1-1.27-2.44-3.27-4.1-.57Z"/>
      <!-- Fin 44 -->
      <!-- Début 49 -->
      <path data-num="49" class="cls-1" d="M188.1,257.75l-.61,1.22-.4-.08.31,1V263l2.92,1.79,1.79,4.76,2.71,3.36-3.58,3.18.22,4,1.35,1.14,4.93-.66,4.06,3.8.91,5.63-2.7,1.83-8.77-.22-5.63,1.09-3.14,1.62V297l2.92,3.62h2.93l.21,3.84,1.14,1.13-1.35,3.14-2.27.66v2l-1.14,1.13,1.36.66L187,313h2l2.27,2.92-.09,2.84.53.09,2.26,1.35h7l3.71,3.14,5.19-2.23,8.47,1.92,3.79-2.48v-3.8l7.38-.57,6.8-1.35,7.38-.26.82,1.92,1.92,1.61,1.88-3.27,5.19-5.45h2.1l3.09-11.17,4.37-5.19-.31-6,2.75-3.58v-1.61l-1.35-1.66.87-1.79L261.26,277l-11.47-7-10.6-3.14-4.06-.22V264l-2.49-2.05H230l-5-1.57-3.14,3.14-7.2.26-3.19-1.83-8.07-2.45-1.83,2.23-4.49-2.92H193l-4.93-1Z"/>
      <!-- Fin 49 -->
      <!-- Début 72 -->
      <path data-num="72" class="cls-1" d="M272.56,206.36l-7.37.26-7.38,6.81-3.83-.22-5.11,1.66-1.57,2.7-.7,5.85.48,3.58L243,230.4l-1.14,2.22.92,2-1.14,2.71.44,1.13-4.49.44-.66,2,2,5-.22,1.35L237,248.85l-3.84.22-.48,1.35.92,1.36v8.11l-.87,2.05,2.44,2v2.7l4.06.22,10.6,3.14,11.47,7,3.71,1.44,1.83-3.66,5.46,3.84h3l-1.66-5.46,3.31,2.18,1.88-2.74,7.9-2.19-1.36-3.27,1.92-2.44,4.1-1.61,3.8-4.93V253h2.75l1.09-3.79.26-5.72-2.7-2.48,2.18-3.8,3.23-4.1-3.8-2.71-3.53-.56-3.84-5.72h-1.09l-.26,2.71-.27-1.88h-5.71l-2.75-4.1-4.63-1.66-1.35-9.81-2.18-3Z"/>
      <!-- Fin 72 -->
      <!-- Début 53 -->
      <path data-num="53" class="cls-1" d="M244.73,198.72,242,199l-1.13,2.7-4.06,1.66-7.37-1.09-7.38,4.36-2.7-1.92-4.1,2.75-3-2.18L210.35,202l-4.06-1.66-2.75,2.18-4.62-.57-.26,7.11,1.35,1.09v5.46l-2.75,2.75v4.36l.83,2.7v7.9l1.92,1.92v7.37l-4.63-.56-1.92,1.09-3.53,8.72-1.4,4.93-.43,1,4.93,1h4.06l4.49,2.92,1.83-2.23,8.07,2.45,3.19,1.83,7.2-.26,3.14-3.14,5,1.57h2.66l.05,0,.87-2.05v-8.11l-.92-1.36.48-1.35,3.84-.22,1.79-1.57.22-1.35-2-5,.66-2,4.49-.44-.44-1.13,1.14-2.71-.92-2L243,230.4l4.05-3.4-.48-3.58.7-5.85,1.57-2.7,5.11-1.66-.79,0-1.4-4.93-3.53-1.36-1.09-6-2.44-2.19Z"/>
      <!-- Fin 53 -->
      <!-- Début 14 -->
      <path data-num="14" class="cls-1" d="M272.87,130.84,266.5,132l-10.39,6-11.69,4.63-9.29-5.19-22.34-3.27-5.19-2.71-8.07,2.05.48,3-1.57,1.57.22,2.23,5.19,5.19,3.14,1.79,2.27-2.93,1.79,2.27-2.27,2.93,2.05,3.36-.92,1.13,1.57,3.18-.87,3.58-2.27,3.62-3.62,2.23-2-1.57-2,1.79,2.22,2.05-1.79,3.36-4.27,1.57,5.19,6.54,5.15.44,4,2.57,5.49-1.66,4.06-4.71,5.63,1.57,4.93-3.4,3-1.09,3.14,3.14,5.19-.92,4.49,2.49,5.63-1.79,5.15-3.84,3.4-3.84,2.27-.43.65,2.92,1.79-.44.22-2,5.19-.87,1.79,1.09,5.54-1.22.92-2.66-.26-2.44-2.75-1.1-.26-1.92,2.44-1.61.31-2.75-1.66-6.54-3.27-4.63,2.74-1.61V142l-2.74-.83-1.31-10.34Z"/>
      <!-- Fin 14 -->
      <!-- Début 61 -->
      <path data-num="61" class="cls-1" d="M278.71,168.36l-5.54,1.22-1.79-1.09-5.19.87-.22,2-1.79.44-.65-2.92-2.27.43-3.4,3.84L252.71,177l-5.63,1.79-4.49-2.49-5.19.92-3.14-3.14-3,1.09-4.93,3.4L220.73,177l-4.06,4.71-5.49,1.66,3,2,2.7,2.71-.65,2.66.43,2.27-1.57,5.19-4.66,4,1.83,3.1,3,2.18,4.1-2.75,2.7,1.92,7.38-4.36,7.37,1.09,4.06-1.66L242,199l2.71-.27,2.44,2.19,1.09,6,3.53,1.36,1.4,4.93,4.62.26,7.38-6.81,7.37-.26,2.18,3,1.35,9.81,4.63,1.66,2.75,4.1h5.71l.27,1.88.26-2.71h1.09l3.84,5.72,3,.48v-6.46l-1.87-2.49-.57-2.18,4.1-2.44,4.1-.83,2.71-3.27-.53-10.08-5.76-4.89-.26-4.66-4.88-3.28,1.92-2.7-1.14-4.1-3.79-1.35-2.75-2.75-1.62-3.8-7.63-.26L277.45,172l1.26-3.62Z"/>
      <!-- Fin 61 -->
      <!-- Début 28 -->
      <path data-num="28" class="cls-1" d="M335,170.37l-1.66,1.35v4.36l-5.45,2.71v4.1l-1.61,1.92h-6.85l-3.23-1.36-9.86,5.15h-3.8l-3.92,3.75.91.62.26,4.66,5.76,4.89.53,10.08-2.71,3.27-4.1.83-4.1,2.44.57,2.18,1.87,2.49v6.46l.57.08,3.8,2.71-1.4,1.74,2.71,1.36,4.31-.79h2.53l-.17,1.18-2.36,1.35,1.57,1.18h3.93l1.35,3.14,2.36,1.35,1.74,3.93,6.07,1.57,3.75-.39,3.32-3.14,3,.83.75-1.62-.18-1.74,1.57-1.18,2.53,1.57,1.57-1.18v-2.14l2.14-1.39,2,.78,1.75,2,3.14-1.75h3.32l2.35-2.57,1.4-5.06,2.13-.4-.56-5.1,2.53-2.14-.79-1.57.31-.52-.74.08-.57-7.33-.57-.82-.52-3.54-5.72-1.09-2.48-3-.79-6-3.27-.52-.57-3-3.79-2.71-1.92-4.67,1.92-3.27-1.92-2.18v-2.7l1.09-3-2.18-2.18-.83-3.27-2.71-2.7Z"/>
      <!-- Fin 28 -->
      <!-- Début 89 -->
      <path data-num="89" class="cls-1" d="M434.51,214l-2.45,1.88-10.64-.52-4.89,2.44-1.92,4.1,2.18,2.44-3.27,3.84-2.48,3,4.93,4.67,1.35,4.36,3.58,3.8v4.93l-7.12,6,2.45,2.75-.53,4.06-3.84,2.75h-5.45l.83,3,3.53,4.88.83,4.37.83,3-1.61.48,3.44.78h2.58l1.35-2.14h1.75l2,1.75-.39,2.18,1.78,1.18h2.54l3.53,2.36,1.57-.79,1.57,1.35,1.57-.39,2.71-1.75,2.57.79,1.75-.39v-4.89l.95.18.62,2.53,3.14,2v3l4.49.17,5.89,5.5,3.71.17-.22-1.74,1.57-2.36,1.4,1.75-1.18,2,.57,1.79,2.13-1.4h2.58l-.22,3.93,2.36,1.57,1.78-.79,4.37-3-.26-.57-2.58-1.57-.17-2.75,2.75-1.35,1.17-1.57-.78-1.35v-3.15l2.14-3.14,3.14-6.67.56-2.93,2-.78.22-.57-1-.78v-2.36l3.14-2.35.79-3.93-1.35-2.31h-2.18l-.57-.61v-3.32l2.75-2-.22-2-.39-2-1.4,3-1.92-.26-1.61-3L473.77,250l-10.9-.57-1.36-3-3-4.06-.52-4.93-4.36-5.19-2.75,1.92-4.93-3.8.83-7.37-7.07-7.37h-3.27L434.51,214Z"/>
      <!-- Fin 89 -->
      <!-- Début 70 -->
      <path data-num="70" class="cls-1" d="M581.18,239.34l-5.14.83-.83,2.71-2.75,1.92-1.88-2.19-1.35.83,1,1.62-2.71,1.65.83,2.19-3,1.09v3.53h-3.84l-.26,2.18-3.8.83.27,3.27,2.44.26-1.35,1.62-.83,5.45h-2.45l-4.1,1.66-4.36-1.66-3.8,1.66v2.75l3,.52,2.18,4.37.31,2.18-3.54,4.1-1.65.52-1.09,1.35,3,1.4.52,4.36,2.44.26.31,5.46,1.09,1.09.13.87,2.09.57,2.36,2H558l1.36-1.35,2.4.09,2.48.08,5.5-4.49h1.57l1.75-1.35,5.67.17,4.32-3.53,3.14-.57,1.18-2.92,2.53-.79,2.53-4.32,3.53-2.75,3.71-.56,2.75,2,5.1-.61v-2.75l2-1.18,1.62-2.22h3.14l1.74-1.83.66-4.37v-2.7l-1.18-4.15v-3.49l2.14-1.57,2.53-1.31-.26-.52-8.73-4.62-2.44-2.75-2.45-1.62-2.18,1.09-.3,1.62-2.18,1.35h-1.36l-4.1-4.62h-5.71L588,245.89l-2.18.26-3.53-2.71.26-3-1.4-1.09Z"/>
      <!-- Fin 70 -->
      <!-- Début 76 -->
      <path data-num="76" class="cls-1" d="M327.71,80.19l-1.79,2.18-11.69,9L293.5,96.55l-13.65,4.88-11.17,6-6.55,9.81-1.35,7.64,5.46,4.1,7.89,1.61-1.26.22,0,.22,6.11-.79,3.14-3.36,2.36-.56,2.7,4.71,3.75-.39,1.57,2.7,6.63-.39,6.68,4.71L301.53,139l3.14,2.36h2l1.75,3.75h3.14l1-2.36-2.36-1.57,6.68-2,7-.79,1.79-5.1,3.32-2.92,6.28-.18,7.24,3.71,4.32.48.74-2.27,1.92-3.58,1.09-1.87h-2.74v-4.67l-1.62-2.7,1.09-5.46,1.09-2.75h-2.18l1.09-2.7,2.71-3.27-2.71-4.93-.83-4.89-12-11.74-1.36-2.7-3,.26-2.35-1Z"/>
      <!-- Fin 76 -->
      <!-- Début 27 -->
      <path data-num="27" class="cls-1" d="M284.52,126.35l-2.36.56L279,130.27l-6.11.79,1.27,10.12,2.74.83v1.09l-2.74,1.61,3.27,4.63,1.66,6.54-.31,2.75-2.44,1.61.26,1.92,2.75,1.1.26,2.44L277.45,172l2.18,2.75,7.63.26,1.62,3.8,2.75,2.75,3.79,1.35,1.14,4.1-1.92,2.7,4,2.66,3.92-3.75h3.8l9.86-5.15,3.23,1.36h6.85l1.61-1.92v-4.1l5.45-2.71v-4.36l1.49-1.22-.13-1.22,1.39-1.4-2.44-.52v-2.19l-1.4-2.18,1.09-1.35,7.64-2.18,1.92-3.27,1.66-6,2-2.49.44-3.23,2.44,1.35,1.92-.52L350,143.1l-.79-6.28-2.44-2.18,0-.18-4.32-.48-7.24-3.71-6.28.18-3.32,2.92-1.79,5.1-7,.79-6.68,2,2.36,1.57-1,2.36h-3.14l-1.75-3.75h-2L301.53,139l4.32-1.35L299.17,133l-6.63.39-1.57-2.7-3.75.39-2.7-4.71Z"/>
      <!-- Fin 27 -->
      <!-- Début 37 -->
      <path data-num="37" class="cls-1" d="M286.17,269.18l.53,1.22-7.9,2.19-1.88,2.74-3.31-2.18,1.66,5.46h-3l-5.46-3.84-2.7,5.45,1.35,1.66v1.61l-2.75,3.58.31,6-4.37,5.19-3.09,11.17h.35l1.09,4.36,5.19,1.09v3.27l6.54,1.92v5.19l-.26,3.28h8.16l7.11-1.66-.57-3,2.18-1.35,2.19,3,1.92.83,1.61,6.54,4.67,4.89.52,3.84,4.23,4.18,2.4-.21,3-2.75L308,331.7l1.35-3.92,1-4.89,4.32-1.57,2.92.57,2,1.78,2.14-3.53,2-1.79v-2.14l2.53-.17.61-2.57-2.18-2.93.35-1.22L323.43,308l-4.1-6.06h-5.28l-1.57-2.36v-9.81l-2.14-5.68-.39-7-2.75-.22-3.14-2.35h-.78l-2.75,2-1.75-1.18-.39-2.7,2-1,.18-1-1.14-1-13.22-.44Z"/>
      <!-- Fin 37 -->
      <!-- Début 45 -->
      <path data-num="45" class="cls-1" d="M372.08,218.36l-3.54,3.27-8,.7-.31.52.79,1.57-2.53,2.14.56,5.1-2.13.4-1.4,5.06-2.35,2.57h-3.32l-3.14,1.75-1.75-2-2-.78-2.14,1.39v2.14l-1.57,1.18-2.53-1.57L335.21,243l.18,1.74-.75,1.62.57.17h2.31l-.17,1.57-1.57,2.71v1.39h1.57l1.35,1.57.39,1.57-3.09,3.1,1.52,3.75V264l2.58,1.74,3.53.4,2.31,2,.61,3.36,2.53,2.92,2.75-.78L353,271l4.32.56,1,1H361l1.35-1.57,10,.39,2.36,3.49,2.75,1.18,2.35,2.18,2.92-.39.79-1h1.75l2.18,2.75,4.49.22,1.18,1.53,3.14,4.31,1.35,1.18,1.75-.17.22-3.93.78-.39,1.18.17,2,2.58,1.35.56,2.8-1.13-.44-.48-.26-2.75,5.45-1.61-.83-3-.83-4.37-3.53-4.88-.83-3h5.45l3.84-2.75.53-4.06-2.45-2.75,7.12-6V244l-3.58-3.8L416,235.81,411,231.14,404.23,235l-.52-2.18-3-.26-.83,2.18-2.71.52-7.37-.26-3,1.92-2.44-2.18,4.36-3-.26-4.63-3.28-1.66-2.74-4.1-7.33-.52-3-2.44Z"/>
      <!-- Fin 45 -->
      <!-- Début 36 -->
      <path data-num="36" class="cls-1" d="M345.55,303.47l-1.74.62-3.54-.22-4.1,1.39-1,2.14-.39-.78-4.71.21-2.36,2-2.75.39-.39,1.35,2.18,2.93-.61,2.57-2.53.17v2.14l-2,1.79-2.14,3.53-2-1.78-2.92-.57-4.32,1.57-1,4.89L308,331.7l-2.14,11.13-3,2.75-2.4.21.7.7v5.19L300.09,355l5.19,4.1,2.71,2.7,4.36.57L314,368l3,1.62-.52,4.1-2.18.39.78.18,6.85.52,2.45-2.44,4.36,4.36,5.45-6.28,2.45,1.65,3.27-.3,1.09.57,4.93.26,1.61-4.36L361.17,370l5.19,1.36,2.36-.27.13-2.18,2.75-2.75-.57-2.35-1.57-3.1.57-1.18.21-3.53,1-1.18.22-.78-2.35-2.14-.79-2.75-3.71-2v-2.36l2.71-1.57v-1.57l-2.53-2.14-.79-1.35,2-1-.17-1.75,3.1-2.57-.18-1.14h-2.53l-1.57-1.79v-1l1.35-2.35v-1.75l-3.14-4.14.61-3.71-1.78-1.35-3.71.17L355,317l-3.92-.57-2-1.57-.39-1.18,3.14-2.57.22-3.1-4.14-2.35-2.36-2.19Z"/>
      <!-- Fin 36 -->
      <!-- Début 41 -->
      <path data-num="41" class="cls-1" d="M300.57,234.8l-1.83,2.36-2.18,3.8,2.7,2.48-.26,5.72L297.91,253h-2.75v5.2l-3.8,4.93-4.1,1.61-1.92,2.44.83,2.05,13.22.44,1.14,1-.18,1-2,1,.39,2.7,1.75,1.18,2.75-2h.78l3.14,2.35,2.75.22.39,7,2.14,5.68v9.81l1.57,2.36h5.28l4.1,6.06,1.53,1.31,0-.13,2.75-.39,2.36-2,4.71-.21.39.78,1-2.14,4.1-1.39,3.54.22,1.74-.62,2.36,2.19,4.14,2.35,3.49-.22-.17-3.53,1.57-1.75,1.57-.17,1.35,1.53,5.5-.57,3.49-2-.4-1.36-.95-1.17.17-2.58,2.57-4.67,3.32-1.39v-2.92l.78-1.75-2.13-.79-1.4-3-3.53-1-.18-1.18,3.54-2.92,4-2-2.23-3.31-10-.39L361,272.59h-2.75l-1-1L353,271l-1.18,2.53-2.75.78-2.53-2.92-.61-3.36-2.31-2-3.53-.4L337.52,264V262.2L336,258.45l3.09-3.1-.39-1.57-1.35-1.57h-1.57v-1.39l1.57-2.71.17-1.57h-2.31l-3.53-1-3.32,3.14-3.75.39-6.07-1.57-1.74-3.93-2.36-1.35-1.35-3.14h-3.93l-1.57-1.18,2.36-1.35.17-1.18h-2.53l-4.31.79-2.71-1.36Z"/>
      <!-- Fin 41 -->
      <!-- Début 18 -->
      <path data-num="18" class="cls-1" d="M374.61,274.72l-4,2-3.54,2.92.18,1.18,3.53,1,1.4,3,2.13.79-.78,1.75v2.92l-3.32,1.39-2.57,4.67-.17,2.58.95,1.17.4,1.36-3.49,2-5.5.57-1.35-1.53-1.57.17-1.57,1.75.17,3.53-3.49.22-.22,3.1-3.14,2.57.39,1.18,2,1.57L355,317l2.93-1.18,3.71-.17,1.78,1.35-.61,3.71,3.14,4.14v1.75L364.57,329v1l1.57,1.79h2.53l.18,1.14-3.1,2.57.17,1.75-2,1,.79,1.35,2.53,2.14v1.57l-2.71,1.57v2.36l3.71,2,.79,2.75,2.35,2.14-.22.78-1,1.18-.21,3.53-.57,1.18,1.57,3.1.57,2.35-2.75,2.75-.13,2.18,6.41-.78,1.31-2.79,3.53-4.06,6.81-1.4,3.58,1.09,3.79-3-.26-2.18-1.35-1.1v-4.36l7.33-7.37,2.75,3,2.44-2.49,2.18-.26,3.8-4.89,6.28.53.09,1.48,2.09-6.67-1.35-2.45.26-3.53.83-7.11-3-3,.56-6.54-2.74-5.76-.27-3.8-4.93-3.84-.78-3.27,2.44-3.53v-5.19l-2.83-3.32-2.8,1.13-1.35-.56-2-2.58-1.18-.17-.78.39-.22,3.93-1.75.17-1.35-1.18-3.14-4.31L392,279.83l-4.49-.22-2.18-2.75h-1.75l-.79,1-2.92.39-2.35-2.18-2.75-1.18-.13-.18Z"/>
      <!-- Fin 18 -->
      <!-- Début 21 -->
      <path data-num="21" class="cls-1" d="M497.24,241.78l-.56,3.54-3.54,1.92-9,.26.39,2,.22,2-2.75,2v3.32l.57.61h2.18l1.35,2.31-.79,3.93-3.14,2.35v2.36l1,.78-.22.57-2,.78-.56,2.93L477.31,280l-2.14,3.14v3.15l.78,1.35-1.17,1.57L472,290.56l.17,2.75,2.58,1.57,1,2.14-.4,3-.56,2.14,1.35,2.36,3.92.78L481.8,308v1.18l-1.18.39v2.84l.22.09,5.28,5.45,5.5-.18,4.88,3.71,3.54,2.58.17,3.31,3.71.79,3.14,2.53,8.25-2.92L521,326l2.53-.4.78-1.13,2.75.17,2.14,1.36,3.14-.79,3.14-2.14,2.36.27,0-.27,1.88-1.09-.26-1.39L539,319l1.35-2.18,4.63-2.18v-2.18l1.66-2.18,1.61-2.18-.52-1.92.78-3,.57-4.37h1.09l-.26-1.61-1.09-1.09-.31-5.46-2.44-.26L545.5,286l-3-1.4,1.09-1.35,1.65-.52,3.54-4.1-.31-2.18-2.18-4.37-3.23-.56-1.13,2.74-6,1.36-.57-1.36L531,268.79l-2.44,1.35-3.27-.26-1.09-2.18-4.37.26-.26-4.62-2.44-1.66,3.53-3.8-6.28-8.46-4.89-5.19-4.36-2.45Z"/>
      <!-- Fin 21 -->
      <!-- Début 58 -->
      <path data-num="58" class="cls-1" d="M418.19,278.82,416.84,281h-2.58l-3.44-.78L407,281.31l.26,2.75,3.27,3.8v5.19l-2.44,3.53.78,3.27,4.93,3.84.27,3.8,2.74,5.76-.56,6.54,3,3-.83,7.11-.26,3.53,1.35,2.45-2.09,6.67.17,2.05,4.67,2.18,3.27,3.58,3-1.66,2.75-1.61.56,2.44h4.06l1.09-2.18,2.44,1.09.83,3.54,2.18-.53,5.2-7.11,2.7,1.92.44.83L455,344.4l1.75.22,1.35,3.31,2.57-.39,2-2h2.53l2-2.54,2-.39.4-1.39,4.27.21.22-1-2-1.74V337l2.75-1.57v-1.18l-2.58-1.57-.39-2.92L472,327l-1.75-1.18,1.53-2.14,1.4-.78,1-2.36-1.35-.78-1.57-2.36,2-2.75,3.31-2h4.1v-3.1l1.18-.39V308l-1.75-2.75-3.92-.78-1.35-2.36.56-2.14.4-3-.7-1.57-4.37,3-1.78.79-2.36-1.57.22-3.93h-2.58L462,295.1l-.57-1.79,1.18-2-1.4-1.75L459.68,292l.22,1.74-3.71-.17L450.3,288l-4.49-.17v-3l-3.14-2-.62-2.53-.95-.18v4.89l-1.75.39-2.57-.79-2.71,1.75-1.57.39-1.57-1.35-1.57.79-3.53-2.36h-2.54l-1.78-1.18.39-2.18-2-1.75Z"/>
      <!-- Fin 58 -->
      <!-- Début 71 -->
      <path data-num="71" class="cls-1" d="M480.62,312.42v.26h-4.1l-3.31,2-2,2.75,1.57,2.36,1.35.78-1,2.36-1.4.78-1.53,2.14L472,327l-.22,2.75.39,2.92,2.58,1.57v1.18L472,337v1.75l2,1.74-.22,1-4.27-.21-.4,1.39-2,.39-2,2.54h-2.53l-2,2-2.57.39-1.35-3.31L455,344.4l-4.27,2.66,5.06,9.51v4.1l1.35,1.66h4.62l1.62,2.18h4.36l1.92,2.7-.26,10.65-5.72,4.36-.13.31.4,0,.82.27.27,4.36,4.1.83.52,1.92h2.18l3.27-1.92,8.73,1.35,1.66,1.66,2.18-2.18h3l1.61-8.73,1.09-.83h2.71l3.32,2.18,2.44-2.18,1.61,2.18L506,379l3-.26,1.39,4.36,1.05,5.46,1.92.26,1.66-3.84,5.14-20.16,1.92-3.53,3-.31,3,2.49,2.18-.57,2.7-1.92,2.75.57,1.61,3.53,1.57.61,7.16-.87,2.75-2.18-1.09-1.66-3.27-1.09-.31-3.79,2.75-1.92,1.09-4.63-2.44-4.36L543.84,343l.83-.83v-2.71L542.49,338l-.57-2.18,6.28-.79.57-2.18h-1.92L545.23,331h-3l-2.48-4.1-2.18-.26.26-3.27-2.36-.27-3.14,2.14-3.14.79L527,324.63l-2.75-.17-.78,1.13L521,326l-5.67,1.79-8.25,2.92-3.14-2.53-3.71-.79-.17-3.31-3.54-2.58-4.88-3.71-5.5.18-5.28-5.45-.22-.09Z"/>
      <!-- Fin 71 -->
      <!-- Début 39 -->
      <path data-num="39" class="cls-1" d="M550,298l.13.74H549l-.57,4.37-.78,3,.52,1.92-1.61,2.18-1.66,2.18v2.18l-4.63,2.18L539,319l.53,1.62.26,1.39-1.88,1.09-.3,3.54,2.18.26,2.48,4.1h3l1.62,1.92h1.92l-.57,2.18-6.28.79.57,2.18,2.18,1.39v2.71l-.83.83,1.66,2.18,2.44,4.36-1.09,4.63-2.75,1.92.31,3.79,3.27,1.09,1.09,1.66L546,364.77l-7.16.87,3.36,1.31,5.46,7.64,3.53,1.61V380l4.1-.57,5.19-5.71,4.37,2.18v3.27h7.89l11.35-12.48-.48-.26.52-5.71,4.1-4.89-2.75-1.09.26-1.66-3.31-.3-.22-2,2.14-2.13-.57-2.14-1.18-2.75,4.89-1.57,1.79-2.53.39-3.14-3.93-3.75-2.74-.75-6.07-2v-5.5l-.39-4.1-4.89.4L564,318.35l1.18-2.7L567,311.5l.61-2.7-2-2.58-3.54-2.35-.39-2.93.05-1.65-2.4-.09L558,300.55h-3.53l-2.36-2L550,298Z"/>
      <!-- Fin 39 -->
      <!-- Début 51 -->
      <path data-num="51" class="cls-1" d="M461,133l-3.28,1.39.57,2.71h-5.76l-5.15,3.84v7.33l3.8,2.48,1.09,2.45-6.28.52-.79,2.49,2.45,1.61-1.1,1.66-2.44,1.09.53,1.88h3.53l1.4,1.92L447.07,166l-2.18,5.72-4.1,1.92-1.4,3L438,178.26l.31,1.62-2.18,1.39-.57,3.8,2.18,1.35,1.09,4.1L437.52,193l.83,1.92,4-.27V196l1.18-.27,4.71,5,6.64-1.09,7.76-5.28h4.67l4.71-3.32,5.54-3.05,4.15.3.56,5.54,5,7.46h5.54l7.76-1.65,5.54,1.92,5.81-4.15.83-6.89,6.41-1.09-.13-4.32-5.19-4.1-.57-2.18,1.92-3.28-1.66-1.35,1.66-4.1,3-1.35,2.18-6.81-4.36.26,2.44-2.7-1.92-6-1.87-4.1,2.44-2.18-1.4-.27-.35-1.87-.39,0-2.49-2.22-2.79,2.79h-.83l-1.09-1.4-6.63-.26L500,145.63h-1.92L496.46,142h-3.62l-.83.83-3.58-.26L484,139.26l-3.05-.83-1.09-1.66L474,133.15,467.4,133l.09,2.48-1.92.53L461,133Z"/>
      <!-- Fin 51 -->
      <!-- Début 60 -->
      <path data-num="60" class="cls-1" d="M349,106.32l-1.79,2.14-1.09,2.7h2.18l-1.09,2.75-1.09,5.46,1.62,2.7v4.67h2.74l-1.09,1.87-1.92,3.58-.78,2.45,2.44,2.18.79,6.28,1.39,2.18-1.92.52L347,144.45l-.44,3.23.18-.22,1,2.44,1.65,2.71,7.38.57,5.19-.57,3.53-2.71,4.36,2.71,2.19,1.66,3.27-.83,3-1.35,5.76,3,6,3.53,1.92,1.92,3.27-2.18L398,160l1.66,1.36,2.44-.27,1.66-2.18,3.79,2.18,4.67-1.92,2.7.83,2.71-2.18,1.66-.83.52.4.57-3.71-2-2.23-3.32-2.22-1.4,2.22-.83.26-.26-4.14,2.49-.57-.57-3.84-3.31-.56,1.65-2.8,4.72-1.09,1.65-6.63,2.49-1.13-3.31-2.49L419.5,126l.52-8.29-1.13-6.41-5.76.57-3.88-.53-7.2,1.92L395.94,119l-5-1.66-5-.52L382.11,113l-6.94-2-9.38.83-2.48-1.92h-5l-3.58,1.39-1.66-1.13v-3l-.56-.83Z"/>
      <!-- Fin 60 -->
      <!-- Début 62 -->
      <path data-num="62" class="cls-1" d="M365.84,6.41l-15.1,2.88-12,9.25V55.36l-.08,1.09,4.23,1,1.35,3,3.27-.83,1.92-2.44,2.45.82,5.19,4.06L359,61.3l1.35,3.27,4.89,2.18v2.71l3.57,1.35,3.54-1.35,6.8-.83L380.8,70l3.27-1.39,1.62,2.74-4.06,2.71v3.84L383,79.27l1.09-.26.79-2.18,2.49-1.66,2.44,1.92L395.5,79H398V76.26l3.57,2.49.27,2.18-1.66,2.44,3-1.66,2.49-1.09,1,1.92v1.92l4.1-2.18h6.55l.26.26,1.61-3.09-.82-1.4-2.49-.52h-2.75L411.47,77l2.75-1.66,2.49.26,2.48-.26.31-4.45,1.66-1.09.26-2.49-3.05-2-3.58-.26-.83-.57,2.22-1.66.53-1.65-1.92-1.36L412,56.45l.3-1.65,3.58-1.66.57-1.92L414,50.08l-1.4-3.57-5-.57-5-1.35-.57-5.54,3.58-2.23L404.27,34h-2.79l-1.92,3L391,36.56,384,34.86l-3.84-4.15V27.4l3-1.4-2.49-1.92-6.06-.26L371,14.66l-5.19-8.25Z"/>
      <!-- Fin 62 -->
      <!-- Début 59 -->
      <path data-num="59" class="cls-1" d="M388.92,0l-8.73,4.1L366.58,6.28l-.74.13L371,14.66l3.62,9.16,6.06.26L383.2,26l-3,1.4v3.31L384,34.86l6.94,1.7,8.59.52,1.92-3h2.79l1.36,2.79-3.58,2.23.57,5.54,5,1.35,5,.57,1.4,3.57,2.49,1.14-.57,1.92L412.3,54.8l-.3,1.65,2.79,3.36,1.92,1.36-.53,1.65L414,64.48l.83.57,3.58.26,3.05,2-.26,2.49-1.66,1.09-.31,4.45-2.48.26-2.49-.26L411.47,77l1.66.57h2.75l2.49.52.82,1.4-1.61,3.09,2.18,2.19,2.18.56,2.18-1.39h3l.83,1.65,1.09-.26,3.28-1.92,3.27,1.92,4.36-3h1.92l2.18,1.92,4.36-3,1.88.26L452,82.81l6,.56.52,2.45,3-2.71h1.62l1.09,3.53L469.41,88l1.48-1h-.43l-.27-2.7L475.65,81l-.83-5.19-5.19-1.36L471,73.08v-3.8l4.1-3L474,64.09l-8.73-6.81L450,58.11l-1.62,2.71h-1.92l.26-9.56-4.36-5.15-3.27.53-1.92-2.18-5.45,2.44L429.84,45,426,44.46l-1.09-3.54L424.65,30l-2.45-1.09-.3-1.66h-1.62L419.72,24l-3.54.3-6.8,2.18-3.27,4.06h-3.28l-2.18-2.71-.83-3-2.7-3h-3.84l-1.62-3V14.18l1.88-3-1.09-4.1L388.92,0Z"/>
      <!-- Fin 59 -->
      <!-- Début 02 -->
      <path data-num="02" class="cls-1" d="M448.42,81.19l-4.36,3-2.18-1.92H440l-4.36,3-3.27-1.92-3.28,1.92-1.09.26-.83-1.65h-3l-2.18,1.39h-.08l.65,3.84L418.93,93v3.58l-2.48,2.79.56,3.32,1.36,5.54,1.65,9.42L419.5,126l-1.13,2.49,3.31,2.49-2.49,1.13-1.65,6.63-4.72,1.09-1.65,2.8,3.31.56.57,3.84-2.49.57.26,4.14.83-.26,1.4-2.22,3.32,2.22,2,2.23-.57,3.71,2.49,1.78.83,6,7.33,7.07,2.44.83,1.4,3.27,4.58,1,.56-.69,1.4-3,4.1-1.92,2.18-5.72,2.45-1.65-1.4-1.92h-3.53l-.53-1.88,2.44-1.09,1.1-1.66-2.45-1.61.79-2.49,6.28-.52-1.09-2.45-3.8-2.48v-7.33l5.15-3.84h5.76l-.57-2.71L461,133l4.62,3,1.92-.53-.26-9.29.83-3.27,1.09-3.8-3.58-1.92.83-2.18,5.19-1.09v-3.53l4.1-2.18,1.09-3.28-1.35-2.18.26-4.1,2.45-2.18-2.45-4.62.74-4.85h-5.54l-1.48,1-5.19-1.36-1.09-3.53h-1.62l-3,2.71L458,83.37l-6-.56-1.66-1.36-1.88-.26Z"/>
      <!-- Fin 02 -->
      <!-- Début 80 -->
      <path data-num="80" class="cls-1" d="M338.66,56.45l-.74,9,6,5.46v2.74l-7.38-4.36-8.85,10.91,2.35,1,3-.26,1.36,2.7,12,11.74.83,4.89,2.71,4.93-.92,1.13h3.45l.56.83v3l1.66,1.13,3.58-1.39h5l2.48,1.92,9.38-.83,6.94,2,3.88,3.89,5,.52,5,1.66,6.11-5.81,7.2-1.92,3.88.53,5.76-.57-.52-3L417,102.7l-.56-3.32,2.48-2.79V93l3.58-3.88-.65-3.84-2.1-.56-2.44-2.45h-6.55l-4.1,2.18V82.54l-1-1.92-2.49,1.09-3,1.66,1.66-2.44-.27-2.18L398,76.26V79H395.5l-5.71-1.92-2.44-1.92-2.49,1.66L384.07,79l-1.09.26-1.35-1.35V74.08l4.06-2.71-1.62-2.74L380.8,70l-1.66-1.39-6.8.83-3.54,1.35-3.57-1.35V66.75l-4.89-2.18L359,61.3l-1.92.78L351.88,58l-2.45-.82-1.92,2.44-3.27.83-1.35-3-4.23-1Z"/>
      <!-- Fin 80 -->
      <!-- Début 08-->
      <path data-num="08" class="cls-1" d="M503.18,72.29l-2.75,4.06L498,78.84v5.71l-3.28,2.18-6,1.92L485.46,90l-3.83-3h-5.2l-.74,4.85,2.45,4.62-2.45,2.18-.26,4.1,1.35,2.18-1.09,3.28-4.1,2.18v3.53L466.4,115l-.83,2.18,3.58,1.92-1.09,3.8-.83,3.27.17,6.81,6.63.17,5.81,3.62,1.09,1.66,3.05.83,4.45,3.32,3.58.26.83-.83h3.62l1.66,3.62H500l1.13-1.66,6.63.26,1.09,1.4h.83l2.79-2.79,2.49,2.22.39,0-.17-1.14,3.27-1.61,1.61-1.66-1-2.7-.31-1.92,3-2.45,1.09-5.45-3.27-4.1,1.09-1.92,2.75-5.15.79,1.09h4.1l1.92,1.88,2.44-1.62,1.92-3.14-2-.3-1.09-5.46-2.19-1.65-7.63-.83-1.35-3.54-2.49-1.61-8.73-1.09-.52-6.28,1.09-1.09V90.83l-4.36-2.75.83-3,1.09-2.7-1.92-1.66,3-2.7V73.08l-1.09-.79Z"/>
      <!-- Fin 08 -->
      <!-- Début 10 -->
      <path data-num="10" class="cls-1" d="M477.61,188,472.07,191l-4.71,3.32h-4.67l-7.76,5.28-6.64,1.09-4.71-5-1.18.27v.82l-3.79,1.62-.26,3.27-1.92,2.49-1.09,5.45-.61,4.58,1.7,1.4h3.27l7.07,7.37-.83,7.37,4.93,3.8,2.75-1.92,4.36,5.19.52,4.93,3,4.06,1.36,3,10.9.57,5.46-2.75,1.61,3,1.92.26,1.4-3,9-.26,3.54-1.92.56-3.54h7.9l1.09.62-.91-3.49-2.23-1.4,3.05-2.75,4.72-.3,1.65-2.49-.3-9.95-1.09-5.8-4.71-1.66-5-6.94.26-4.14,1.44-3-2.53-.87-7.76,1.65H487.3l-5-7.46-.56-5.54-4.15-.3Z"/>
      <!-- Fin 10 -->
      <!-- Début 52 -->
      <path data-num="52" class="cls-1" d="M519.19,189.39l-6.41,1.09-.83,6.89-5.81,4.15-3-1.05-1.44,3-.26,4.14,5,6.94,4.71,1.66,1.09,5.8.3,9.95-1.65,2.49-4.72.3-3.05,2.75,2.23,1.4.91,3.49,3.27,1.83,4.89,5.19,6.28,8.46-3.53,3.8,2.44,1.66.26,4.62,4.37-.26,1.09,2.18,3.27.26,2.44-1.35,4.36,5.45.57,1.36,6-1.36,1.13-2.74.26,0v-2.75l3.8-1.66,4.36,1.66,4.1-1.66H558l.83-5.45,1.35-1.62-2.44-.26-.27-3.27,3.8-.83.26-2.18h3.84V250l3-1.09-.83-2.19.83-.52-2.49-2-3,1.09V239.6l-7.64-3.79,1.62-7.38,2.44-1.65-.79-2.45-3.57-.52-.79-3.58H551l-3.84-5.15-4.36-.3-1.88-2.71,2.44-2.44-5.75-6.28-2.45-.83-6.54-3.27-3.54-3.8-5.71-.83-.13-5.23Z"/>
      <!-- Fin 52 -->
      <!-- Début 67 -->
      <path data-num="67" class="cls-1" d="M661.07,151.08l-5.2,1.44-2.4,4.19v4.1l-2.18,1.92h-1.92l-3.53-2.49-2.75,1.92h-3.27l-2.71-2.7-5.19-.83-3-1.35-1.09-4.1-2.44,2.7L624,162.16l-3.58,1.1v3.53l3.58,1.66,2.7,1.92-1.09,2.44,2.49,1.61,4.36-3.27,7.59,4.36-3.23,6,.26,1.91,2.19,2.19-1.66,5.71-5.46,5.45-3-.26,1.92,1.88L630,203.35l1.09,7.37,5.2,1.35-.44,1,4.1-.22,2.4,2.92,2.14,2.66,5.36-.26,2.4,6.94,4.19,1.83,0-.87,7.11-13.92-.83-7.89L666,193.62l.83-9.29,7.07-5.15v-3.27l2.75-3.58h2.18l2.44-2.44-.52-4.63,2.44-6.54,3.8-.83-3.8-3-6.8-.79-6-3-4.11,2.45L664,151.08Z"/>
      <!-- Fin 67 -->
      <!-- Début 54 -->
      <path data-num="54" class="cls-1" d="M550.6,117.79l-3.27,3-4.63.26-1.61,1.65h-.35l-.17,3.28,1.61,2.66-.57,1.61-.52,1.88.26,1,1.35-1,1.31-2.4,2.71-.26,4.54-1.36,2.39,1.88,1.05,2.14.83,2.4V137l1.31,1.09v1.83l-1.31,1.61-.26,3.49,1.05,1.62.26,2.14.26,3.44,1.61,1.36,2.4,1-1,2.14,2.92,2.71-2.66,2.92.52,1.87,2.66,1.31v1.36h-3.18l-1.35,1.87.26,1.35,2.14,2.14-1.84,5.06-2.14,4.8,1.05,3v4.8l1.09,2.4h1.57l.83,1.35h-2.4l-2.14,1v1.61l2.67,2.4v3.75l2.66-.83,4,.27.26,4.27,1.62.57L566.48,208l-.26,1.35,2.92.52,1.88,2.4,8.81-.52,1.88-3.49h4l1.62-1.31,2.66,1.61,2.4-.82,3.49.26,2.92-1.05,2.92-2.14,1.62,1.62.26-3.76,2.14-.82,1.09,3.49,3.18.26,3.23.83,1.31.26,4.58-2.14,2.4-1.61,2.14-2.67,4.27-1.61,2.79-.61-1.57-1.53,3,.26.57-.56-3.23-1.05L625,192l-4-3h-4.8l-5.06-2.92-4-.27v-1.09l-6.15-3.7-6.94-3h-3.49l-1.31-3.71-5.36-6.72h-5.33l-2.14-2.92h-4.27l.26-4.28L566.74,157l.26-3.44h3v-3l1-2.14-2.4-2.4,2.14-3.71L569.14,138,567.83,137l-3.49-7.46,1.36-2.14s-.11-1.76-.22-4.1h-3.67l-4.93-5.46Z"/>
      <!-- Fin 54 -->
      <!-- Début 77 -->
      <path data-num="77" class="cls-1" d="M419.24,157l-1.66.83L414.87,160l-2.7-.83-4.67,1.92-3.79-2.18-1.66,2.18-2.44.27L398,160l-2.71-1.61L392,160.55l-.13-.13L390.66,168l1.62,9.59V184l-2.14,5.36.52,3.71-2.4,1.88,1.31,7.24-1.05,1.57-.78,7.24,1.83,2.4-6.11,4v5.49l1.7,2.53,3.28,1.66.26,4.63-4.36,3,2.44,2.18,3-1.92,7.37.26,2.71-.52.83-2.18,3,.26.52,2.18,6.81-3.84,2.48-3,3.27-3.84-2.18-2.44,1.92-4.1,4.89-2.44,10.64.52,2.45-1.88.22.22.61-4.58,1.09-5.45,1.92-2.49.26-3.27,3.79-1.62v-2.18l-4,.27-.83-1.92,1.35-2.45-1.09-4.1-2.18-1.35.57-3.8,2.18-1.39-.31-1.62.79-1-4.58-1-1.4-3.27-2.44-.83-7.33-7.07-.83-6-3-2.18Z"/>
      <!-- Fin 77 -->
      <!-- Début 68 -->
      <path data-num="68" class="cls-1" d="M640,212.86l-4.1.22-2.57,5.8L630,225.42l.83,4.11-2.7,6.28-4.67,4.06-.26,10.64-3.41,2.92.14.09L621,255.7l4.36.26,4.93,3.84.78,1.88-.26,3.27-1.35,2.49.52,3.27,3.84-.57.83,3L636,279l3.23-.53-.56,3,1.91,1.66,10.08-.26,5.19-4.11.27-6,2.74-3.53-3.57-4.1-1.88-4.36,2.18-3v-6.85l1.36-3.27v-5.46l2.44-3.53-2.71-3.8-.26-7.85-4.19-1.83-2.4-6.94-5.36.26-2.14-2.66-2.4-2.92Z"/>
      <!-- Fin 68 -->
      <!-- Début 55 -->
      <path data-num="55" class="cls-1" d="M534.59,115.13l-1.92,3.14-2.44,1.62L528.31,118h-4.1l-.79-1.09-2.75,5.15L519.58,124l3.27,4.1-1.09,5.45-3,2.45.31,1.92,1,2.7-1.61,1.66-3.27,1.61.52,3,1.4.27-2.44,2.18,1.87,4.1,1.92,6-2.44,2.7,4.36-.26-2.18,6.81-3,1.35-1.66,4.1,1.66,1.35-1.92,3.28.57,2.18,5.19,4.1.26,9.55,5.71.83,3.54,3.8,6.54,3.27,2.45.83,5.75,6.28-.61.61,4.8-.61v-2.4l5.37-1.09v-1.83h1.31v1.57l4.27-1.31,1.66-2.22-.3.08v-3.75l-2.67-2.4v-1.61l2.14-1h2.4l-.83-1.35h-1.57l-1.09-2.4v-4.8l-1.05-3,2.14-4.8,1.84-5.06L559,170.1l-.26-1.35,1.35-1.87h3.18v-1.36l-2.66-1.31-.52-1.87,2.66-2.92-2.92-2.71,1-2.14-2.4-1-1.61-1.36-.26-3.44-.26-2.14L555.27,145l.26-3.49,1.31-1.61V138L555.53,137v-2.4l-.83-2.4L553.65,130l-2.39-1.88-4.54,1.36-2.71.26-1.31,2.4-1.35,1-.26-1,.52-1.88.57-1.61L540.57,126l.17-3.28h-1.31l-1.09-5.19-2.18-2.18-1.57-.22Z"/>
      <!-- Fin 55 -->
      <!-- Début 57 -->
      <path data-num="57" class="cls-1" d="M580.62,120.54l-4.1.27-3.28,2.74-.83,1.36h-4.62l-1.61-1.66h-.7c.11,2.34.22,4.1.22,4.1l-1.36,2.14,3.49,7.46,1.31,1.09,1.62,4.27L568.62,146l2.4,2.4-1,2.14v3h-3l-.26,3.44,5.63,3.49-.26,4.28h4.27l2.14,2.92h5.33l5.36,6.72,1.31,3.71H594l6.94,3,6.15,3.7v1.09l4,.27,5.06,2.92H621l4,3,4.53,3.18,3.23,1.05,4.89-4.89,1.66-5.71-2.19-2.19-.26-1.91,3.23-6-7.59-4.36-4.36,3.27-2.49-1.61,1.09-2.44-2.7-1.92-3.58-1.66v-3.53l3.58-1.1,1.35-6.28,2.44-2.7,1.09,4.1,3,1.35,5.19.83,2.71,2.7h3.27l2.75-1.92,3.53,2.49h1.92l2.18-1.92v-4.1l2.4-4.19-.56.18L653.43,150,648,146.72l-1.92-3-6.55.57-3.84,3.53-9.24.26-2.75-1.92c-.19-.33-1.53-2.7-2.71-3.36l-.17-.08-.13-.05-.09,0h-.17c-1.28,0-3.76-1.44-4.06-1.62l-3.84,1.62-.26,3.27-4.63.57-2.75-5.19-1.61-.57v-3.8l-3.84-1.65-.26-6.55-2.75-2.7-5.72-2.75H588l-.83.57h-2.75l-3.79-3.28Z"/>
      <!-- Fin 57 -->
      <!-- Début 88 -->
      <path data-num="88" class="cls-1" d="M630.74,198.07l-2.79.61-4.27,1.61L621.54,203l-2.4,1.61-4.58,2.14-1.31-.26-3.23-.83-3.18-.26-1.09-3.49-2.14.82-.26,3.76-1.62-1.62L598.81,207,595.89,208l-3.49-.26-2.4.82L587.34,207l-1.62,1.31h-4l-1.88,3.49-8.81.52-1.88-2.4-2.92-.52.26-1.35,1.88-1.31-1.62-.57-.26-4.27-4-.27-2.36.75-1.66,2.22-4.27,1.31v-1.57h-1.31v1.83l-5.37,1.09v2.4l-4.8.61-1.83,1.83,1.88,2.71,4.36.3,3.84,5.15h3.27l.79,3.58,3.57.52.79,2.45-2.44,1.65-1.62,7.38L563,239.6v5.72l3-1.09,2.49,2,1.88-1.13-1-1.62,1.35-.83,1.88,2.19,2.75-1.92.83-2.71,5.14-.83,1.4,1.09-.26,3,3.53,2.71,2.18-.26,2.45-1.92h5.71l4.1,4.62h1.36l2.18-1.35.3-1.62,2.18-1.09,2.45,1.62,2.44,2.75,8.59,4.53,3.41-2.92.26-10.64,4.67-4.06,2.7-6.28-.83-4.11,3.28-6.54,3-6.81-5.2-1.35L630,203.35l1.09-4.93-.35-.35Z"/>
      <!-- Fin 88 -->
      <!-- Début 91 -->
      <path data-num="91" class="cls-1" d="M372.77,184.76l-2.44,1.09-2.66,1.05-.52,3-4,1.87-.52,2.93,1.87,3.23-2.7,3.7h-4l1.57,2.4-1.88,2.14-.65,4.32,1.31.26.52,3.54.57.82.57,7.33,8.72-.78,3.54-3.27,3,2.44,7.33.52,1,1.57V217.4l6.11-4-1.83-2.4.78-7.24,1.05-1.57-1.31-7.24,2.4-1.88-.48-3.4-3-1.4h-5.06l-2.92-1.61-2.14,1.09-4.28-3Z"/>
      <!-- Fin 91 -->
      <!-- Début78 -->
      <path data-num="78" class="cls-1" d="M341.06,159.28l-.09.18-7.64,2.18L332.24,163l1.4,2.18v2.19l2.44.52-1.39,1.4.13,1.22.17-.13,2.71,2.7.83,3.27,2.18,2.18-1.09,3v2.7l1.92,2.18-1.92,3.27,1.92,4.67,3.79,2.71.57,3,3.27.52.79,6,2.48,3,4.41.83.65-4.32,1.88-2.14-1.57-2.4h4l2.7-3.7-1.87-3.23.52-2.93,4-1.87.52-3,2.66-1.05,2.44-1.09.48.31v-.31L370.81,182l-1.53-4.14,2.45-5.32-1.22-4-4.76-2.88-6.72-.3-6.28-4-5.06.91-6.63-3Z"/>
      <!-- Fin 78-->
      <!-- Début 95 -->
      <path data-num="95" class="cls-1" d="M346.73,147.46l-2.18,2.71-1.66,6-1.83,3.09,6.63,3,5.06-.91,6.28,4,6.72.3,4.76,2.88,1.22,4-.05.08.53-.08,4.88-2.62,7.33-.48,4-1.83,2.57-1.83.83-5.37-1.79-1.79-6-3.53-5.76-3-3,1.35-3.27.83-2.19-1.66-4.36-2.71L362,152.61l-5.19.57-7.38-.57-1.65-2.71-1-2.44Z"/>
      <!-- Fin 95 -->
      <!-- Début 93 -->
      <path data-num="93" class="cls-1" d="M391,165.79l-2.57,1.83-4,1.83-7.33.48.22,1,.61.13.57.88-.57,1.22-.74.13.52,1.26,3.54,0,1.13,1.75.22,2.44,1.22-.18,1.14-.91,1.7.09,2.14,1.22,1.22,1.35.56.26.35.66,1.36.35v-4L390.66,168l.35-2.18Z"/>
      <!-- Fin 93 -->
      <!-- Début 75 -->
      <path data-num="75" class="cls-1" d="M381.24,174.51l-3.54,0-1.57.7-.65.88-1.44.08-1.31,1.49,0,.82.31,1,2.18.62,2.66,1.35,1.7.09,1.14-.31,1.18-.83.39.35,2.53.35.44-.92v-.91l-.44-.18-1.75.09.13.44-.3.26h-.57l.22-.57.09-.61h-.09l-.22-2.44-1.13-1.75Z"/>
      <!-- Fin 75 -->
      <!-- Début 92 -->
      <path data-num="92" class="cls-1" d="M377.09,169.93l-4.88,2.62-.53.08-2.4,5.24,1.53,4.14,2.44,2.75v.31l3.8,2.66.92-.48-.7-1.31.7-2.05-.44-.74.48-1.7h-.09l-2.66-1.35-2.18-.62-.31-1,0-.82,1.31-1.49,1.44-.08.65-.88,1.57-.7-.52-1.26.74-.13.57-1.22-.57-.88-.61-.13-.22-1Z"/>
      <!-- Fin 92 -->
      <!-- Début 94 -->
      <path data-num="94" class="cls-1" d="M385,177.61l-1.14.91-1.13.18-.09.61-.22.57h.57l.3-.26-.13-.44,1.75-.09.44.18v.91l-.44.92-2.53-.35-.39-.35-1.18.83-1.14.31-1.61-.09-.48,1.7.44.74-.7,2.05.7,1.31,1.22-.61,2.92,1.61h5.06l3,1.4,0-.31,2.14-5.36v-2.44l-1.36-.35-.35-.66-.56-.26-1.22-1.35-2.14-1.22-1.7-.09Z"/>
      <!-- Fin 94 -->
      <!-- Début 25 -->
      <path data-num="25" class="cls-1" d="M614.56,273.15l-.26.31h-3.14l-1.62,2.22-2,1.18v2.75l-5.1.61-2.75-2-3.71.56-3.53,2.75-2.53,4.32-2.53.79-1.18,2.92-3.14.57-4.32,3.53-5.67-.17-1.75,1.35h-1.57l-5.5,4.49-2.48-.08-.05,1.65.39,2.93,3.54,2.35,2,2.58-.61,2.7-1.74,4.15-1.18,2.7,7.63,2.58,4.89-.4.39,4.1v5.5l6.07,2,2.74.75,3.93,3.75-.39,3.14-1.79,2.53-4.89,1.57,1.18,2.75.57,2.14-2.14,2.13.22,2,3.31.3,0-.26L602.69,337l-.52-13.08,6-3,4.1-1.92,3.79-3.53.31-5.2,3.79-1.92,8.73-10.07-1.35-3.28,3-1.35,3.53-4.36-1.92-1.92-6.54,1.35-.26-1.09,6-6.94-16.8-7.59Z"/>
      <!-- Fin  25 -->
      <!-- Début 90 -->
      <path data-num="90" class="cls-1" d="M620.19,254l-2.53,1.31-2.14,1.57v3.49l1.18,4.15v2.7l-.66,4.37-1.48,1.52,16.8,7.59,1-1.22L636,279l-1.35-5.81-.83-3-3.84.57-.52-3.27,1.35-2.49.26-3.27-.78-1.88L625.38,256,621,255.7l-.83-1.66Z"/>
      <!-- Fin 90 -->
    </g>
  </g>
</svg>
